<?xml version="1.0" encoding="UTF-8"?>
<svg xmlns="http://www.w3.org/2000/svg" xmlns:xlink="http://www.w3.org/1999/xlink" width="1920" height="1080" viewBox="0 0 1920 1080">
<defs>
<g>
<g id="glyph-0-0">
<path d="M 0.125 0 L 0.125 -0.28125 L 0.171875 -0.28125 C 0.273438 -0.28125 0.367188 -0.289062 0.453125 -0.3125 C 0.535156 -0.332031 0.597656 -0.375 0.640625 -0.4375 C 0.691406 -0.507812 0.71875 -0.617188 0.71875 -0.765625 L 0.71875 -4.34375 C 0.71875 -4.46875 0.691406 -4.5625 0.640625 -4.625 C 0.585938 -4.695312 0.519531 -4.742188 0.4375 -4.765625 C 0.351562 -4.785156 0.265625 -4.796875 0.171875 -4.796875 L 0.125 -4.796875 L 0.125 -5.078125 L 1.34375 -5.078125 L 1.34375 -3.609375 C 1.34375 -3.523438 1.335938 -3.4375 1.328125 -3.34375 C 1.328125 -3.257812 1.328125 -3.1875 1.328125 -3.125 C 1.328125 -3.0625 1.328125 -3.03125 1.328125 -3.03125 L 1.359375 -3.03125 C 1.421875 -3.164062 1.5 -3.28125 1.59375 -3.375 C 1.6875 -3.46875 1.796875 -3.535156 1.921875 -3.578125 C 2.046875 -3.617188 2.179688 -3.640625 2.328125 -3.640625 C 2.710938 -3.640625 3.003906 -3.535156 3.203125 -3.328125 C 3.410156 -3.117188 3.515625 -2.785156 3.515625 -2.328125 L 3.515625 -0.765625 C 3.515625 -0.617188 3.535156 -0.507812 3.578125 -0.4375 C 3.628906 -0.375 3.691406 -0.332031 3.765625 -0.3125 C 3.847656 -0.289062 3.9375 -0.28125 4.03125 -0.28125 L 4.046875 -0.28125 L 4.046875 0 L 2.890625 0 L 2.890625 -2.296875 C 2.890625 -2.585938 2.832031 -2.8125 2.71875 -2.96875 C 2.613281 -3.132812 2.425781 -3.21875 2.15625 -3.21875 C 1.96875 -3.21875 1.8125 -3.171875 1.6875 -3.078125 C 1.570312 -2.992188 1.484375 -2.867188 1.421875 -2.703125 C 1.367188 -2.546875 1.34375 -2.359375 1.34375 -2.140625 L 1.34375 -0.734375 C 1.34375 -0.597656 1.367188 -0.5 1.421875 -0.4375 C 1.472656 -0.375 1.539062 -0.332031 1.625 -0.3125 C 1.707031 -0.289062 1.796875 -0.28125 1.890625 -0.28125 L 1.921875 -0.28125 L 1.921875 0 Z "/>
</g>
<g id="glyph-0-1">
<path d="M 1.34375 0.703125 C 1.082031 0.703125 0.867188 0.640625 0.703125 0.515625 C 0.546875 0.390625 0.425781 0.21875 0.34375 0 C 0.269531 -0.226562 0.234375 -0.488281 0.234375 -0.78125 C 0.234375 -1.082031 0.269531 -1.34375 0.34375 -1.5625 C 0.425781 -1.78125 0.546875 -1.953125 0.703125 -2.078125 C 0.867188 -2.203125 1.082031 -2.265625 1.34375 -2.265625 C 1.582031 -2.265625 1.78125 -2.203125 1.9375 -2.078125 C 2.101562 -1.953125 2.222656 -1.78125 2.296875 -1.5625 C 2.378906 -1.34375 2.421875 -1.082031 2.421875 -0.78125 C 2.421875 -0.488281 2.378906 -0.226562 2.296875 0 C 2.222656 0.21875 2.101562 0.390625 1.9375 0.515625 C 1.78125 0.640625 1.582031 0.703125 1.34375 0.703125 Z M 1.34375 0.421875 C 1.519531 0.421875 1.644531 0.3125 1.71875 0.09375 C 1.789062 -0.125 1.828125 -0.414062 1.828125 -0.78125 C 1.828125 -1.15625 1.789062 -1.445312 1.71875 -1.65625 C 1.644531 -1.875 1.519531 -1.984375 1.34375 -1.984375 C 1.15625 -1.984375 1.023438 -1.875 0.953125 -1.65625 C 0.878906 -1.445312 0.84375 -1.15625 0.84375 -0.78125 C 0.84375 -0.414062 0.878906 -0.125 0.953125 0.09375 C 1.023438 0.3125 1.15625 0.421875 1.34375 0.421875 Z "/>
</g>
<g id="glyph-0-2">
</g>
<g id="glyph-0-3">
<path d="M 0.4375 -2.84375 L 0.4375 -3.234375 L 3.296875 -3.234375 L 3.296875 -2.84375 Z M 0.4375 -1.53125 L 0.4375 -1.921875 L 3.296875 -1.921875 L 3.296875 -1.53125 Z "/>
</g>
<g id="glyph-0-4">
<path d="M 0.40625 0 L 0.40625 -0.484375 L 1.515625 -1.78125 C 1.753906 -2.050781 1.941406 -2.285156 2.078125 -2.484375 C 2.210938 -2.691406 2.3125 -2.882812 2.375 -3.0625 C 2.4375 -3.25 2.46875 -3.445312 2.46875 -3.65625 C 2.46875 -3.820312 2.441406 -3.96875 2.390625 -4.09375 C 2.347656 -4.21875 2.273438 -4.316406 2.171875 -4.390625 C 2.066406 -4.460938 1.9375 -4.5 1.78125 -4.5 C 1.582031 -4.5 1.429688 -4.453125 1.328125 -4.359375 C 1.222656 -4.265625 1.148438 -4.140625 1.109375 -3.984375 C 1.066406 -3.835938 1.046875 -3.675781 1.046875 -3.5 C 0.941406 -3.5 0.847656 -3.507812 0.765625 -3.53125 C 0.679688 -3.5625 0.613281 -3.609375 0.5625 -3.671875 C 0.507812 -3.734375 0.484375 -3.820312 0.484375 -3.9375 C 0.484375 -4.113281 0.53125 -4.265625 0.625 -4.390625 C 0.726562 -4.523438 0.875 -4.628906 1.0625 -4.703125 C 1.257812 -4.785156 1.5 -4.828125 1.78125 -4.828125 C 2.0625 -4.828125 2.300781 -4.78125 2.5 -4.6875 C 2.707031 -4.601562 2.863281 -4.476562 2.96875 -4.3125 C 3.082031 -4.144531 3.140625 -3.945312 3.140625 -3.71875 C 3.140625 -3.5625 3.113281 -3.40625 3.0625 -3.25 C 3.007812 -3.101562 2.9375 -2.953125 2.84375 -2.796875 C 2.75 -2.648438 2.628906 -2.492188 2.484375 -2.328125 C 2.347656 -2.160156 2.195312 -1.976562 2.03125 -1.78125 L 0.90625 -0.53125 L 2.4375 -0.53125 C 2.632812 -0.53125 2.769531 -0.582031 2.84375 -0.6875 C 2.914062 -0.789062 2.96875 -0.90625 3 -1.03125 L 3.03125 -1.15625 L 3.3125 -1.15625 L 3.28125 0 Z "/>
</g>
</g>
</defs>
<g fill="rgb(100%, 100%, 100%)" fill-opacity="1">
<use xlink:href="#glyph-0-0" x="30" y="27.126953"/>
<use xlink:href="#glyph-0-1" x="34" y="27.126953"/>
<use xlink:href="#glyph-0-2" x="37" y="27.126953"/>
<use xlink:href="#glyph-0-3" x="39" y="27.126953"/>
<use xlink:href="#glyph-0-2" x="43" y="27.126953"/>
<use xlink:href="#glyph-0-4" x="45" y="27.126953"/>
</g>
</svg>
