<?xml version="1.0" encoding="UTF-8"?>
<svg xmlns="http://www.w3.org/2000/svg" xmlns:xlink="http://www.w3.org/1999/xlink" width="1920" height="1080" viewBox="0 0 1920 1080">
<defs>
<g>
<g id="glyph-0-0">
<path d="M 0.109375 0 L 0.109375 -0.25 L 0.15625 -0.25 C 0.25 -0.25 0.332031 -0.257812 0.40625 -0.28125 C 0.488281 -0.300781 0.550781 -0.34375 0.59375 -0.40625 C 0.632812 -0.46875 0.65625 -0.566406 0.65625 -0.703125 L 0.65625 -3.96875 C 0.65625 -4.09375 0.628906 -4.179688 0.578125 -4.234375 C 0.535156 -4.296875 0.476562 -4.335938 0.40625 -4.359375 C 0.332031 -4.378906 0.25 -4.390625 0.15625 -4.390625 L 0.109375 -4.390625 L 0.109375 -4.640625 L 1.234375 -4.640625 L 1.234375 -3.296875 C 1.234375 -3.222656 1.226562 -3.144531 1.21875 -3.0625 C 1.21875 -2.988281 1.210938 -2.921875 1.203125 -2.859375 C 1.203125 -2.804688 1.203125 -2.78125 1.203125 -2.78125 L 1.234375 -2.78125 C 1.296875 -2.90625 1.367188 -3.007812 1.453125 -3.09375 C 1.546875 -3.175781 1.648438 -3.234375 1.765625 -3.265625 C 1.878906 -3.304688 2.003906 -3.328125 2.140625 -3.328125 C 2.484375 -3.328125 2.75 -3.234375 2.9375 -3.046875 C 3.125 -2.859375 3.21875 -2.554688 3.21875 -2.140625 L 3.21875 -0.703125 C 3.21875 -0.566406 3.238281 -0.46875 3.28125 -0.40625 C 3.320312 -0.34375 3.378906 -0.300781 3.453125 -0.28125 C 3.523438 -0.257812 3.601562 -0.25 3.6875 -0.25 L 3.703125 -0.25 L 3.703125 0 L 2.640625 0 L 2.640625 -2.109375 C 2.640625 -2.367188 2.585938 -2.570312 2.484375 -2.71875 C 2.390625 -2.863281 2.21875 -2.9375 1.96875 -2.9375 C 1.800781 -2.9375 1.660156 -2.894531 1.546875 -2.8125 C 1.441406 -2.738281 1.363281 -2.625 1.3125 -2.46875 C 1.257812 -2.320312 1.234375 -2.148438 1.234375 -1.953125 L 1.234375 -0.671875 C 1.234375 -0.546875 1.253906 -0.453125 1.296875 -0.390625 C 1.347656 -0.335938 1.410156 -0.300781 1.484375 -0.28125 C 1.554688 -0.257812 1.640625 -0.25 1.734375 -0.25 L 1.75 -0.25 L 1.75 0 Z "/>
</g>
<g id="glyph-0-1">
</g>
<g id="glyph-0-2">
<path d="M 0.390625 -2.609375 L 0.390625 -2.96875 L 3.015625 -2.96875 L 3.015625 -2.609375 Z M 0.390625 -1.40625 L 0.390625 -1.765625 L 3.015625 -1.765625 L 3.015625 -1.40625 Z "/>
</g>
<g id="glyph-0-3">
<path d="M 1.3125 0 L 1.3125 -0.25 L 1.484375 -0.25 C 1.578125 -0.25 1.660156 -0.257812 1.734375 -0.28125 C 1.804688 -0.300781 1.863281 -0.34375 1.90625 -0.40625 C 1.957031 -0.46875 1.984375 -0.566406 1.984375 -0.703125 L 1.984375 -1.203125 L 0.109375 -1.203125 L 0.109375 -1.453125 L 1.984375 -4.359375 L 2.578125 -4.359375 L 2.578125 -1.546875 L 3.328125 -1.546875 L 3.328125 -1.203125 L 2.578125 -1.203125 L 2.578125 -0.703125 C 2.578125 -0.566406 2.597656 -0.46875 2.640625 -0.40625 C 2.679688 -0.34375 2.738281 -0.300781 2.8125 -0.28125 C 2.894531 -0.257812 2.984375 -0.25 3.078125 -0.25 L 3.15625 -0.25 L 3.15625 0 Z M 0.546875 -1.546875 L 1.984375 -1.546875 L 1.984375 -2.671875 C 1.984375 -2.785156 1.984375 -2.914062 1.984375 -3.0625 C 1.984375 -3.21875 1.988281 -3.367188 2 -3.515625 C 2.007812 -3.671875 2.019531 -3.8125 2.03125 -3.9375 C 2.007812 -3.894531 1.972656 -3.832031 1.921875 -3.75 C 1.878906 -3.664062 1.828125 -3.578125 1.765625 -3.484375 C 1.710938 -3.390625 1.660156 -3.296875 1.609375 -3.203125 C 1.554688 -3.117188 1.515625 -3.050781 1.484375 -3 Z "/>
</g>
<g id="glyph-0-4">
<path d="M 1.703125 0.0625 C 1.367188 0.0625 1.097656 -0.03125 0.890625 -0.21875 C 0.679688 -0.40625 0.523438 -0.664062 0.421875 -1 C 0.328125 -1.34375 0.28125 -1.738281 0.28125 -2.1875 C 0.28125 -2.644531 0.328125 -3.039062 0.421875 -3.375 C 0.523438 -3.707031 0.679688 -3.960938 0.890625 -4.140625 C 1.097656 -4.328125 1.375 -4.421875 1.71875 -4.421875 C 2.03125 -4.421875 2.289062 -4.328125 2.5 -4.140625 C 2.71875 -3.960938 2.878906 -3.703125 2.984375 -3.359375 C 3.085938 -3.023438 3.140625 -2.632812 3.140625 -2.1875 C 3.140625 -1.738281 3.085938 -1.34375 2.984375 -1 C 2.878906 -0.664062 2.71875 -0.40625 2.5 -0.21875 C 2.289062 -0.03125 2.023438 0.0625 1.703125 0.0625 Z M 1.703125 -0.265625 C 1.910156 -0.265625 2.070312 -0.34375 2.1875 -0.5 C 2.300781 -0.65625 2.378906 -0.875 2.421875 -1.15625 C 2.472656 -1.4375 2.5 -1.78125 2.5 -2.1875 C 2.5 -2.59375 2.472656 -2.9375 2.421875 -3.21875 C 2.378906 -3.5 2.300781 -3.710938 2.1875 -3.859375 C 2.070312 -4.015625 1.914062 -4.09375 1.71875 -4.09375 C 1.519531 -4.09375 1.359375 -4.015625 1.234375 -3.859375 C 1.117188 -3.710938 1.035156 -3.5 0.984375 -3.21875 C 0.929688 -2.9375 0.90625 -2.59375 0.90625 -2.1875 C 0.90625 -1.78125 0.929688 -1.4375 0.984375 -1.15625 C 1.035156 -0.875 1.117188 -0.65625 1.234375 -0.5 C 1.359375 -0.34375 1.515625 -0.265625 1.703125 -0.265625 Z "/>
</g>
</g>
</defs>
<g fill="rgb(100%, 100%, 100%)" fill-opacity="1">
<use xlink:href="#glyph-0-0" x="30" y="26.532227"/>
<use xlink:href="#glyph-0-1" x="34" y="26.532227"/>
<use xlink:href="#glyph-0-2" x="36" y="26.532227"/>
<use xlink:href="#glyph-0-1" x="39" y="26.532227"/>
<use xlink:href="#glyph-0-3" x="41" y="26.532227"/>
<use xlink:href="#glyph-0-4" x="44" y="26.532227"/>
</g>
</svg>
