<?xml version="1.0" encoding="UTF-8"?>
<svg xmlns="http://www.w3.org/2000/svg" xmlns:xlink="http://www.w3.org/1999/xlink" width="1920" height="1080" viewBox="0 0 1920 1080">
<defs>
<g>
<g id="glyph-0-0">
<path d="M 0.25 0 L 0.25 -0.28125 L 0.34375 -0.28125 C 0.4375 -0.28125 0.523438 -0.289062 0.609375 -0.3125 C 0.691406 -0.332031 0.757812 -0.375 0.8125 -0.4375 C 0.863281 -0.5 0.890625 -0.597656 0.890625 -0.734375 L 0.890625 -4.03125 C 0.890625 -4.164062 0.863281 -4.265625 0.8125 -4.328125 C 0.757812 -4.390625 0.691406 -4.429688 0.609375 -4.453125 C 0.523438 -4.472656 0.4375 -4.484375 0.34375 -4.484375 L 0.25 -4.484375 L 0.25 -4.765625 L 2.046875 -4.765625 C 2.429688 -4.765625 2.75 -4.71875 3 -4.625 C 3.257812 -4.53125 3.453125 -4.382812 3.578125 -4.1875 C 3.703125 -4 3.765625 -3.757812 3.765625 -3.46875 C 3.765625 -3.238281 3.710938 -3.039062 3.609375 -2.875 C 3.515625 -2.71875 3.390625 -2.585938 3.234375 -2.484375 C 3.085938 -2.390625 2.9375 -2.316406 2.78125 -2.265625 L 3.703125 -0.8125 C 3.816406 -0.632812 3.925781 -0.5 4.03125 -0.40625 C 4.132812 -0.320312 4.253906 -0.28125 4.390625 -0.28125 L 4.421875 -0.28125 L 4.421875 0 L 4.328125 0 C 4.046875 0 3.828125 -0.015625 3.671875 -0.046875 C 3.523438 -0.078125 3.40625 -0.132812 3.3125 -0.21875 C 3.21875 -0.300781 3.117188 -0.425781 3.015625 -0.59375 L 2.109375 -2.109375 L 1.5625 -2.109375 L 1.5625 -0.734375 C 1.5625 -0.597656 1.585938 -0.5 1.640625 -0.4375 C 1.691406 -0.375 1.757812 -0.332031 1.84375 -0.3125 C 1.925781 -0.289062 2.015625 -0.28125 2.109375 -0.28125 L 2.1875 -0.28125 L 2.1875 0 Z M 2.03125 -2.421875 C 2.414062 -2.421875 2.679688 -2.503906 2.828125 -2.671875 C 2.972656 -2.847656 3.046875 -3.109375 3.046875 -3.453125 C 3.046875 -3.691406 3.007812 -3.882812 2.9375 -4.03125 C 2.875 -4.175781 2.765625 -4.28125 2.609375 -4.34375 C 2.460938 -4.40625 2.265625 -4.4375 2.015625 -4.4375 L 1.5625 -4.4375 L 1.5625 -2.421875 Z "/>
</g>
<g id="glyph-0-1">
<path d="M 1.921875 0.0625 C 1.429688 0.0625 1.046875 -0.09375 0.765625 -0.40625 C 0.492188 -0.726562 0.359375 -1.179688 0.359375 -1.765625 C 0.359375 -2.390625 0.488281 -2.859375 0.75 -3.171875 C 1.007812 -3.484375 1.375 -3.640625 1.84375 -3.640625 C 2.28125 -3.640625 2.617188 -3.503906 2.859375 -3.234375 C 3.109375 -2.972656 3.234375 -2.578125 3.234375 -2.046875 L 3.234375 -1.734375 L 1.015625 -1.734375 C 1.023438 -1.253906 1.113281 -0.90625 1.28125 -0.6875 C 1.445312 -0.46875 1.691406 -0.359375 2.015625 -0.359375 C 2.242188 -0.359375 2.4375 -0.40625 2.59375 -0.5 C 2.757812 -0.59375 2.882812 -0.703125 2.96875 -0.828125 C 3 -0.804688 3.023438 -0.773438 3.046875 -0.734375 C 3.078125 -0.703125 3.09375 -0.65625 3.09375 -0.59375 C 3.09375 -0.5 3.046875 -0.398438 2.953125 -0.296875 C 2.867188 -0.203125 2.738281 -0.117188 2.5625 -0.046875 C 2.394531 0.0234375 2.179688 0.0625 1.921875 0.0625 Z M 2.5625 -2.109375 C 2.5625 -2.460938 2.503906 -2.742188 2.390625 -2.953125 C 2.285156 -3.171875 2.097656 -3.28125 1.828125 -3.28125 C 1.585938 -3.28125 1.398438 -3.175781 1.265625 -2.96875 C 1.128906 -2.769531 1.050781 -2.484375 1.03125 -2.109375 Z "/>
</g>
<g id="glyph-0-2">
<path d="M 1.375 0.0625 C 1.175781 0.0625 0.992188 0.0234375 0.828125 -0.046875 C 0.671875 -0.128906 0.546875 -0.25 0.453125 -0.40625 C 0.367188 -0.5625 0.328125 -0.757812 0.328125 -1 C 0.328125 -1.351562 0.453125 -1.613281 0.703125 -1.78125 C 0.960938 -1.957031 1.347656 -2.050781 1.859375 -2.0625 L 2.40625 -2.09375 L 2.40625 -2.484375 C 2.40625 -2.648438 2.390625 -2.789062 2.359375 -2.90625 C 2.335938 -3.03125 2.28125 -3.128906 2.1875 -3.203125 C 2.101562 -3.273438 1.96875 -3.3125 1.78125 -3.3125 C 1.613281 -3.3125 1.484375 -3.28125 1.390625 -3.21875 C 1.304688 -3.15625 1.25 -3.066406 1.21875 -2.953125 C 1.195312 -2.847656 1.1875 -2.722656 1.1875 -2.578125 C 1 -2.578125 0.851562 -2.609375 0.75 -2.671875 C 0.65625 -2.742188 0.609375 -2.851562 0.609375 -3 C 0.609375 -3.15625 0.660156 -3.28125 0.765625 -3.375 C 0.878906 -3.46875 1.023438 -3.535156 1.203125 -3.578125 C 1.390625 -3.617188 1.59375 -3.640625 1.8125 -3.640625 C 2.21875 -3.640625 2.519531 -3.550781 2.71875 -3.375 C 2.925781 -3.207031 3.03125 -2.910156 3.03125 -2.484375 L 3.03125 -0.765625 C 3.03125 -0.640625 3.039062 -0.539062 3.0625 -0.46875 C 3.09375 -0.394531 3.140625 -0.34375 3.203125 -0.3125 C 3.265625 -0.289062 3.347656 -0.28125 3.453125 -0.28125 L 3.46875 -0.28125 L 3.46875 0 L 2.5625 0 L 2.46875 -0.578125 L 2.40625 -0.578125 C 2.3125 -0.453125 2.21875 -0.335938 2.125 -0.234375 C 2.039062 -0.140625 1.9375 -0.0664062 1.8125 -0.015625 C 1.695312 0.0351562 1.550781 0.0625 1.375 0.0625 Z M 1.515625 -0.34375 C 1.703125 -0.34375 1.859375 -0.378906 1.984375 -0.453125 C 2.117188 -0.535156 2.222656 -0.644531 2.296875 -0.78125 C 2.367188 -0.925781 2.40625 -1.09375 2.40625 -1.28125 L 2.40625 -1.8125 L 1.984375 -1.796875 C 1.722656 -1.785156 1.519531 -1.742188 1.375 -1.671875 C 1.238281 -1.609375 1.140625 -1.519531 1.078125 -1.40625 C 1.015625 -1.289062 0.984375 -1.144531 0.984375 -0.96875 C 0.984375 -0.832031 1 -0.71875 1.03125 -0.625 C 1.070312 -0.53125 1.132812 -0.457031 1.21875 -0.40625 C 1.300781 -0.363281 1.398438 -0.34375 1.515625 -0.34375 Z "/>
</g>
<g id="glyph-0-3">
<path d="M 0.09375 0 L 0.09375 -0.28125 L 0.171875 -0.28125 C 0.273438 -0.28125 0.367188 -0.289062 0.453125 -0.3125 C 0.535156 -0.332031 0.597656 -0.375 0.640625 -0.4375 C 0.691406 -0.507812 0.71875 -0.617188 0.71875 -0.765625 L 0.71875 -4.34375 C 0.71875 -4.46875 0.691406 -4.5625 0.640625 -4.625 C 0.585938 -4.695312 0.519531 -4.742188 0.4375 -4.765625 C 0.351562 -4.785156 0.265625 -4.796875 0.171875 -4.796875 L 0.09375 -4.796875 L 0.09375 -5.078125 L 1.34375 -5.078125 L 1.34375 -0.765625 C 1.34375 -0.617188 1.367188 -0.507812 1.421875 -0.4375 C 1.472656 -0.375 1.539062 -0.332031 1.625 -0.3125 C 1.707031 -0.289062 1.796875 -0.28125 1.890625 -0.28125 L 1.984375 -0.28125 L 1.984375 0 Z "/>
</g>
<g id="glyph-0-4">
</g>
<g id="glyph-0-5">
<path d="M 0.4375 -2.84375 L 0.4375 -3.234375 L 3.296875 -3.234375 L 3.296875 -2.84375 Z M 0.4375 -1.53125 L 0.4375 -1.921875 L 3.296875 -1.921875 L 3.296875 -1.53125 Z "/>
</g>
<g id="glyph-0-6">
<path d="M 0.40625 0 L 0.40625 -0.484375 L 1.515625 -1.78125 C 1.753906 -2.050781 1.941406 -2.285156 2.078125 -2.484375 C 2.210938 -2.691406 2.3125 -2.882812 2.375 -3.0625 C 2.4375 -3.25 2.46875 -3.445312 2.46875 -3.65625 C 2.46875 -3.820312 2.441406 -3.96875 2.390625 -4.09375 C 2.347656 -4.21875 2.273438 -4.316406 2.171875 -4.390625 C 2.066406 -4.460938 1.9375 -4.5 1.78125 -4.5 C 1.582031 -4.5 1.429688 -4.453125 1.328125 -4.359375 C 1.222656 -4.265625 1.148438 -4.140625 1.109375 -3.984375 C 1.066406 -3.835938 1.046875 -3.675781 1.046875 -3.5 C 0.941406 -3.5 0.847656 -3.507812 0.765625 -3.53125 C 0.679688 -3.5625 0.613281 -3.609375 0.5625 -3.671875 C 0.507812 -3.734375 0.484375 -3.820312 0.484375 -3.9375 C 0.484375 -4.113281 0.53125 -4.265625 0.625 -4.390625 C 0.726562 -4.523438 0.875 -4.628906 1.0625 -4.703125 C 1.257812 -4.785156 1.5 -4.828125 1.78125 -4.828125 C 2.0625 -4.828125 2.300781 -4.78125 2.5 -4.6875 C 2.707031 -4.601562 2.863281 -4.476562 2.96875 -4.3125 C 3.082031 -4.144531 3.140625 -3.945312 3.140625 -3.71875 C 3.140625 -3.5625 3.113281 -3.40625 3.0625 -3.25 C 3.007812 -3.101562 2.9375 -2.953125 2.84375 -2.796875 C 2.75 -2.648438 2.628906 -2.492188 2.484375 -2.328125 C 2.347656 -2.160156 2.195312 -1.976562 2.03125 -1.78125 L 0.90625 -0.53125 L 2.4375 -0.53125 C 2.632812 -0.53125 2.769531 -0.582031 2.84375 -0.6875 C 2.914062 -0.789062 2.96875 -0.90625 3 -1.03125 L 3.03125 -1.15625 L 3.3125 -1.15625 L 3.28125 0 Z "/>
</g>
<g id="glyph-0-7">
<path d="M 1.953125 0.0625 C 1.660156 0.0625 1.394531 -0.0195312 1.15625 -0.1875 C 0.925781 -0.351562 0.742188 -0.613281 0.609375 -0.96875 C 0.472656 -1.332031 0.40625 -1.8125 0.40625 -2.40625 C 0.40625 -2.71875 0.441406 -3.019531 0.515625 -3.3125 C 0.585938 -3.601562 0.691406 -3.863281 0.828125 -4.09375 C 0.972656 -4.320312 1.15625 -4.5 1.375 -4.625 C 1.59375 -4.757812 1.847656 -4.828125 2.140625 -4.828125 C 2.390625 -4.828125 2.597656 -4.789062 2.765625 -4.71875 C 2.929688 -4.65625 3.050781 -4.570312 3.125 -4.46875 C 3.207031 -4.363281 3.25 -4.25 3.25 -4.125 C 3.25 -4 3.203125 -3.898438 3.109375 -3.828125 C 3.023438 -3.765625 2.898438 -3.734375 2.734375 -3.734375 C 2.734375 -3.878906 2.710938 -4.007812 2.671875 -4.125 C 2.640625 -4.238281 2.578125 -4.332031 2.484375 -4.40625 C 2.398438 -4.476562 2.285156 -4.515625 2.140625 -4.515625 C 1.921875 -4.515625 1.734375 -4.4375 1.578125 -4.28125 C 1.429688 -4.132812 1.316406 -3.914062 1.234375 -3.625 C 1.160156 -3.34375 1.113281 -2.984375 1.09375 -2.546875 C 1.164062 -2.609375 1.25 -2.664062 1.34375 -2.71875 C 1.4375 -2.769531 1.539062 -2.8125 1.65625 -2.84375 C 1.769531 -2.875 1.898438 -2.890625 2.046875 -2.890625 C 2.453125 -2.890625 2.773438 -2.769531 3.015625 -2.53125 C 3.265625 -2.289062 3.390625 -1.957031 3.390625 -1.53125 C 3.390625 -1.21875 3.332031 -0.941406 3.21875 -0.703125 C 3.101562 -0.460938 2.9375 -0.273438 2.71875 -0.140625 C 2.507812 -0.00390625 2.253906 0.0625 1.953125 0.0625 Z M 1.96875 -0.296875 C 2.132812 -0.296875 2.269531 -0.335938 2.375 -0.421875 C 2.488281 -0.503906 2.570312 -0.628906 2.625 -0.796875 C 2.675781 -0.972656 2.703125 -1.195312 2.703125 -1.46875 C 2.703125 -1.84375 2.632812 -2.117188 2.5 -2.296875 C 2.363281 -2.472656 2.171875 -2.5625 1.921875 -2.5625 C 1.796875 -2.5625 1.679688 -2.539062 1.578125 -2.5 C 1.484375 -2.457031 1.394531 -2.40625 1.3125 -2.34375 C 1.226562 -2.289062 1.15625 -2.234375 1.09375 -2.171875 C 1.09375 -1.503906 1.171875 -1.023438 1.328125 -0.734375 C 1.492188 -0.441406 1.707031 -0.296875 1.96875 -0.296875 Z "/>
</g>
<g id="glyph-0-8">
<path d="M 0.828125 0.046875 C 0.710938 0.046875 0.613281 0.015625 0.53125 -0.046875 C 0.445312 -0.117188 0.40625 -0.238281 0.40625 -0.40625 C 0.40625 -0.582031 0.445312 -0.703125 0.53125 -0.765625 C 0.613281 -0.828125 0.710938 -0.859375 0.828125 -0.859375 C 0.941406 -0.859375 1.039062 -0.828125 1.125 -0.765625 C 1.207031 -0.703125 1.25 -0.582031 1.25 -0.40625 C 1.25 -0.238281 1.207031 -0.117188 1.125 -0.046875 C 1.039062 0.015625 0.941406 0.046875 0.828125 0.046875 Z "/>
</g>
<g id="glyph-0-9">
<path d="M 0.640625 0 L 0.640625 -0.28125 L 1.09375 -0.28125 C 1.1875 -0.28125 1.273438 -0.289062 1.359375 -0.3125 C 1.441406 -0.332031 1.507812 -0.375 1.5625 -0.4375 C 1.613281 -0.507812 1.640625 -0.617188 1.640625 -0.765625 L 1.640625 -4.265625 C 1.460938 -4.054688 1.304688 -3.882812 1.171875 -3.75 C 1.035156 -3.625 0.90625 -3.5625 0.78125 -3.5625 C 0.675781 -3.5625 0.59375 -3.59375 0.53125 -3.65625 C 0.46875 -3.726562 0.4375 -3.820312 0.4375 -3.9375 C 0.570312 -3.96875 0.710938 -4.019531 0.859375 -4.09375 C 1.015625 -4.164062 1.203125 -4.28125 1.421875 -4.4375 L 1.875 -4.796875 L 2.3125 -4.796875 L 2.3125 -0.765625 C 2.3125 -0.617188 2.332031 -0.507812 2.375 -0.4375 C 2.425781 -0.375 2.492188 -0.332031 2.578125 -0.3125 C 2.660156 -0.289062 2.753906 -0.28125 2.859375 -0.28125 L 3.1875 -0.28125 L 3.1875 0 Z "/>
</g>
<g id="glyph-0-10">
<path d="M 1.515625 0.078125 C 1.265625 0.078125 1.066406 0.0507812 0.921875 0 C 0.785156 -0.0625 0.6875 -0.132812 0.625 -0.21875 C 0.570312 -0.3125 0.546875 -0.40625 0.546875 -0.5 C 0.546875 -0.582031 0.566406 -0.648438 0.609375 -0.703125 C 0.648438 -0.765625 0.695312 -0.804688 0.75 -0.828125 C 0.789062 -0.734375 0.84375 -0.644531 0.90625 -0.5625 C 0.96875 -0.476562 1.050781 -0.410156 1.15625 -0.359375 C 1.257812 -0.316406 1.378906 -0.296875 1.515625 -0.296875 C 1.890625 -0.296875 2.164062 -0.457031 2.34375 -0.78125 C 2.519531 -1.113281 2.617188 -1.613281 2.640625 -2.28125 C 2.578125 -2.207031 2.5 -2.132812 2.40625 -2.0625 C 2.3125 -2 2.203125 -1.941406 2.078125 -1.890625 C 1.953125 -1.847656 1.8125 -1.828125 1.65625 -1.828125 C 1.394531 -1.828125 1.164062 -1.878906 0.96875 -1.984375 C 0.769531 -2.085938 0.613281 -2.238281 0.5 -2.4375 C 0.394531 -2.632812 0.34375 -2.882812 0.34375 -3.1875 C 0.34375 -3.507812 0.398438 -3.789062 0.515625 -4.03125 C 0.628906 -4.28125 0.789062 -4.472656 1 -4.609375 C 1.21875 -4.753906 1.472656 -4.828125 1.765625 -4.828125 C 2.066406 -4.828125 2.332031 -4.75 2.5625 -4.59375 C 2.800781 -4.4375 2.988281 -4.191406 3.125 -3.859375 C 3.257812 -3.535156 3.328125 -3.113281 3.328125 -2.59375 C 3.328125 -2.238281 3.289062 -1.898438 3.21875 -1.578125 C 3.15625 -1.265625 3.050781 -0.984375 2.90625 -0.734375 C 2.757812 -0.484375 2.570312 -0.285156 2.34375 -0.140625 C 2.113281 0.00390625 1.835938 0.078125 1.515625 0.078125 Z M 1.796875 -2.234375 C 2.015625 -2.234375 2.195312 -2.285156 2.34375 -2.390625 C 2.488281 -2.503906 2.585938 -2.628906 2.640625 -2.765625 C 2.640625 -3.160156 2.597656 -3.484375 2.515625 -3.734375 C 2.441406 -3.984375 2.34375 -4.164062 2.21875 -4.28125 C 2.09375 -4.40625 1.941406 -4.46875 1.765625 -4.46875 C 1.609375 -4.46875 1.472656 -4.421875 1.359375 -4.328125 C 1.253906 -4.234375 1.171875 -4.097656 1.109375 -3.921875 C 1.054688 -3.742188 1.03125 -3.519531 1.03125 -3.25 C 1.03125 -2.882812 1.09375 -2.625 1.21875 -2.46875 C 1.351562 -2.3125 1.546875 -2.234375 1.796875 -2.234375 Z "/>
</g>
</g>
</defs>
<g fill="rgb(34.509804%, 76.862745%, 86.666667%)" fill-opacity="1">
<use xlink:href="#glyph-0-0" x="30" y="27.126953"/>
<use xlink:href="#glyph-0-1" x="34" y="27.126953"/>
<use xlink:href="#glyph-0-2" x="38" y="27.126953"/>
<use xlink:href="#glyph-0-3" x="42" y="27.126953"/>
<use xlink:href="#glyph-0-4" x="44" y="27.126953"/>
<use xlink:href="#glyph-0-5" x="46" y="27.126953"/>
<use xlink:href="#glyph-0-4" x="50" y="27.126953"/>
<use xlink:href="#glyph-0-6" x="52" y="27.126953"/>
<use xlink:href="#glyph-0-6" x="56" y="27.126953"/>
<use xlink:href="#glyph-0-7" x="60" y="27.126953"/>
<use xlink:href="#glyph-0-8" x="64" y="27.126953"/>
<use xlink:href="#glyph-0-9" x="66" y="27.126953"/>
<use xlink:href="#glyph-0-10" x="70" y="27.126953"/>
</g>
</svg>
