<?xml version="1.0" encoding="UTF-8"?>
<svg xmlns="http://www.w3.org/2000/svg" xmlns:xlink="http://www.w3.org/1999/xlink" width="1920" height="1080" viewBox="0 0 1920 1080">
<defs>
<g>
<g id="glyph-0-0">
<path d="M 0 0 L 0 -0.421875 L 0.1875 -0.421875 C 0.320312 -0.421875 0.425781 -0.441406 0.5 -0.484375 C 0.582031 -0.523438 0.65625 -0.597656 0.71875 -0.703125 C 0.789062 -0.816406 0.867188 -0.984375 0.953125 -1.203125 L 3.171875 -7.140625 L 3.953125 -7.140625 L 6.203125 -0.953125 C 6.265625 -0.804688 6.320312 -0.695312 6.375 -0.625 C 6.4375 -0.550781 6.507812 -0.5 6.59375 -0.46875 C 6.6875 -0.4375 6.796875 -0.421875 6.921875 -0.421875 L 7.046875 -0.421875 L 7.046875 0 L 4.296875 0 L 4.296875 -0.421875 L 4.53125 -0.421875 C 4.726562 -0.421875 4.875 -0.457031 4.96875 -0.53125 C 5.070312 -0.613281 5.125 -0.738281 5.125 -0.90625 C 5.125 -0.9375 5.117188 -0.96875 5.109375 -1 C 5.109375 -1.039062 5.101562 -1.082031 5.09375 -1.125 C 5.082031 -1.175781 5.066406 -1.222656 5.046875 -1.265625 L 4.65625 -2.390625 L 2.015625 -2.390625 L 1.640625 -1.34375 C 1.617188 -1.289062 1.597656 -1.234375 1.578125 -1.171875 C 1.566406 -1.117188 1.554688 -1.070312 1.546875 -1.03125 C 1.546875 -0.988281 1.546875 -0.945312 1.546875 -0.90625 C 1.546875 -0.738281 1.597656 -0.613281 1.703125 -0.53125 C 1.816406 -0.457031 1.984375 -0.421875 2.203125 -0.421875 L 2.4375 -0.421875 L 2.4375 0 Z M 2.203125 -2.890625 L 4.46875 -2.890625 L 3.84375 -4.640625 C 3.78125 -4.835938 3.71875 -5.023438 3.65625 -5.203125 C 3.59375 -5.390625 3.535156 -5.566406 3.484375 -5.734375 C 3.429688 -5.898438 3.382812 -6.0625 3.34375 -6.21875 C 3.3125 -6.0625 3.273438 -5.90625 3.234375 -5.75 C 3.191406 -5.601562 3.144531 -5.445312 3.09375 -5.28125 C 3.039062 -5.125 2.972656 -4.941406 2.890625 -4.734375 Z "/>
</g>
<g id="glyph-0-1">
<path d="M 0.1875 2.40625 L 0.1875 1.984375 L 0.265625 1.984375 C 0.410156 1.984375 0.546875 1.960938 0.671875 1.921875 C 0.796875 1.890625 0.894531 1.820312 0.96875 1.71875 C 1.039062 1.613281 1.078125 1.460938 1.078125 1.265625 L 1.078125 -4.265625 C 1.078125 -4.460938 1.035156 -4.609375 0.953125 -4.703125 C 0.878906 -4.796875 0.78125 -4.859375 0.65625 -4.890625 C 0.539062 -4.921875 0.410156 -4.9375 0.265625 -4.9375 L 0.125 -4.9375 L 0.125 -5.359375 L 1.875 -5.359375 L 1.984375 -4.453125 L 2.015625 -4.453125 C 2.171875 -4.765625 2.367188 -5.007812 2.609375 -5.1875 C 2.847656 -5.363281 3.160156 -5.453125 3.546875 -5.453125 C 4.210938 -5.453125 4.71875 -5.226562 5.0625 -4.78125 C 5.414062 -4.34375 5.59375 -3.644531 5.59375 -2.6875 C 5.59375 -1.71875 5.414062 -1.007812 5.0625 -0.5625 C 4.71875 -0.125 4.210938 0.09375 3.546875 0.09375 C 3.160156 0.09375 2.84375 0.015625 2.59375 -0.140625 C 2.351562 -0.304688 2.160156 -0.519531 2.015625 -0.78125 L 1.984375 -0.78125 C 1.992188 -0.582031 2 -0.375 2 -0.15625 C 2.007812 0.0507812 2.015625 0.21875 2.015625 0.34375 L 2.015625 1.3125 C 2.015625 1.5 2.050781 1.640625 2.125 1.734375 C 2.207031 1.835938 2.3125 1.90625 2.4375 1.9375 C 2.5625 1.96875 2.695312 1.984375 2.84375 1.984375 L 2.875 1.984375 L 2.875 2.40625 Z M 3.390625 -0.546875 C 3.828125 -0.546875 4.140625 -0.726562 4.328125 -1.09375 C 4.523438 -1.46875 4.625 -2.003906 4.625 -2.703125 C 4.625 -3.410156 4.523438 -3.9375 4.328125 -4.28125 C 4.140625 -4.632812 3.820312 -4.8125 3.375 -4.8125 C 3.03125 -4.8125 2.757812 -4.734375 2.5625 -4.578125 C 2.363281 -4.429688 2.222656 -4.195312 2.140625 -3.875 C 2.054688 -3.5625 2.015625 -3.164062 2.015625 -2.6875 C 2.015625 -2.226562 2.054688 -1.835938 2.140625 -1.515625 C 2.222656 -1.203125 2.363281 -0.960938 2.5625 -0.796875 C 2.769531 -0.628906 3.046875 -0.546875 3.390625 -0.546875 Z "/>
</g>
<g id="glyph-0-2">
<path d="M 0.328125 0 L 0.328125 -0.421875 L 0.359375 -0.421875 C 0.515625 -0.421875 0.648438 -0.4375 0.765625 -0.46875 C 0.890625 -0.5 0.988281 -0.566406 1.0625 -0.671875 C 1.144531 -0.773438 1.1875 -0.929688 1.1875 -1.140625 L 1.1875 -4.265625 C 1.1875 -4.460938 1.144531 -4.609375 1.0625 -4.703125 C 0.988281 -4.796875 0.890625 -4.859375 0.765625 -4.890625 C 0.640625 -4.921875 0.503906 -4.9375 0.359375 -4.9375 L 0.328125 -4.9375 L 0.328125 -5.359375 L 1.875 -5.359375 L 2.0625 -4.375 L 2.109375 -4.375 C 2.191406 -4.570312 2.285156 -4.753906 2.390625 -4.921875 C 2.492188 -5.085938 2.628906 -5.21875 2.796875 -5.3125 C 2.960938 -5.40625 3.191406 -5.453125 3.484375 -5.453125 C 3.847656 -5.453125 4.117188 -5.390625 4.296875 -5.265625 C 4.472656 -5.140625 4.5625 -4.960938 4.5625 -4.734375 C 4.5625 -4.523438 4.488281 -4.351562 4.34375 -4.21875 C 4.195312 -4.082031 3.957031 -4.015625 3.625 -4.015625 C 3.625 -4.203125 3.609375 -4.351562 3.578125 -4.46875 C 3.546875 -4.582031 3.488281 -4.664062 3.40625 -4.71875 C 3.332031 -4.769531 3.226562 -4.796875 3.09375 -4.796875 C 2.90625 -4.796875 2.75 -4.722656 2.625 -4.578125 C 2.5 -4.429688 2.398438 -4.242188 2.328125 -4.015625 C 2.253906 -3.796875 2.203125 -3.5625 2.171875 -3.3125 C 2.140625 -3.070312 2.125 -2.851562 2.125 -2.65625 L 2.125 -1.09375 C 2.125 -0.894531 2.160156 -0.75 2.234375 -0.65625 C 2.304688 -0.5625 2.40625 -0.5 2.53125 -0.46875 C 2.65625 -0.4375 2.789062 -0.421875 2.9375 -0.421875 L 3.21875 -0.421875 L 3.21875 0 Z "/>
</g>
<g id="glyph-0-3">
<path d="M 2.875 0.09375 C 2.15625 0.09375 1.585938 -0.132812 1.171875 -0.59375 C 0.753906 -1.050781 0.546875 -1.75 0.546875 -2.6875 C 0.546875 -3.625 0.742188 -4.316406 1.140625 -4.765625 C 1.535156 -5.222656 2.125 -5.453125 2.90625 -5.453125 C 3.625 -5.453125 4.1875 -5.222656 4.59375 -4.765625 C 5.007812 -4.316406 5.21875 -3.625 5.21875 -2.6875 C 5.21875 -1.75 5.019531 -1.050781 4.625 -0.59375 C 4.226562 -0.132812 3.644531 0.09375 2.875 0.09375 Z M 2.890625 -0.421875 C 3.222656 -0.421875 3.488281 -0.503906 3.6875 -0.671875 C 3.882812 -0.847656 4.023438 -1.101562 4.109375 -1.4375 C 4.203125 -1.78125 4.25 -2.195312 4.25 -2.6875 C 4.25 -3.4375 4.144531 -4 3.9375 -4.375 C 3.726562 -4.75 3.375 -4.9375 2.875 -4.9375 C 2.375 -4.9375 2.019531 -4.75 1.8125 -4.375 C 1.613281 -4 1.515625 -3.4375 1.515625 -2.6875 C 1.515625 -1.9375 1.617188 -1.367188 1.828125 -0.984375 C 2.035156 -0.609375 2.390625 -0.421875 2.890625 -0.421875 Z "/>
</g>
<g id="glyph-0-4">
<path d="M 0.046875 0 L 0.046875 -0.421875 L 0.140625 -0.421875 C 0.296875 -0.421875 0.429688 -0.4375 0.546875 -0.46875 C 0.660156 -0.507812 0.769531 -0.578125 0.875 -0.671875 C 0.988281 -0.765625 1.109375 -0.894531 1.234375 -1.0625 L 2.484375 -2.6875 L 1.234375 -4.40625 C 1.140625 -4.519531 1.039062 -4.613281 0.9375 -4.6875 C 0.84375 -4.769531 0.75 -4.832031 0.65625 -4.875 C 0.5625 -4.914062 0.46875 -4.9375 0.375 -4.9375 L 0.234375 -4.9375 L 0.234375 -5.359375 L 2.78125 -5.359375 L 2.78125 -4.9375 L 2.75 -4.9375 C 2.519531 -4.9375 2.367188 -4.90625 2.296875 -4.84375 C 2.222656 -4.789062 2.1875 -4.726562 2.1875 -4.65625 C 2.1875 -4.582031 2.203125 -4.507812 2.234375 -4.4375 C 2.273438 -4.375 2.332031 -4.289062 2.40625 -4.1875 L 3.0625 -3.296875 L 3.59375 -4.046875 C 3.664062 -4.148438 3.722656 -4.253906 3.765625 -4.359375 C 3.816406 -4.460938 3.84375 -4.5625 3.84375 -4.65625 C 3.84375 -4.769531 3.789062 -4.84375 3.6875 -4.875 C 3.582031 -4.914062 3.453125 -4.9375 3.296875 -4.9375 L 3.265625 -4.9375 L 3.265625 -5.359375 L 5.453125 -5.359375 L 5.453125 -4.9375 L 5.375 -4.9375 C 5.25 -4.9375 5.132812 -4.921875 5.03125 -4.890625 C 4.925781 -4.859375 4.820312 -4.796875 4.71875 -4.703125 C 4.613281 -4.609375 4.492188 -4.472656 4.359375 -4.296875 L 3.328125 -2.9375 L 4.796875 -0.953125 C 4.898438 -0.828125 4.992188 -0.722656 5.078125 -0.640625 C 5.171875 -0.554688 5.257812 -0.5 5.34375 -0.46875 C 5.4375 -0.4375 5.519531 -0.421875 5.59375 -0.421875 L 5.734375 -0.421875 L 5.734375 0 L 3.15625 0 L 3.15625 -0.421875 L 3.203125 -0.421875 C 3.398438 -0.421875 3.546875 -0.445312 3.640625 -0.5 C 3.742188 -0.5625 3.796875 -0.644531 3.796875 -0.75 C 3.796875 -0.820312 3.769531 -0.898438 3.71875 -0.984375 C 3.675781 -1.078125 3.578125 -1.226562 3.421875 -1.4375 L 2.75 -2.34375 L 2.046875 -1.359375 C 1.984375 -1.273438 1.921875 -1.175781 1.859375 -1.0625 C 1.804688 -0.945312 1.78125 -0.835938 1.78125 -0.734375 C 1.78125 -0.617188 1.828125 -0.535156 1.921875 -0.484375 C 2.015625 -0.441406 2.175781 -0.421875 2.40625 -0.421875 L 2.4375 -0.421875 L 2.4375 0 Z "/>
</g>
<g id="glyph-0-5">
<path d="M 0.234375 0 L 0.234375 -0.421875 L 0.359375 -0.421875 C 0.503906 -0.421875 0.640625 -0.4375 0.765625 -0.46875 C 0.890625 -0.5 0.988281 -0.5625 1.0625 -0.65625 C 1.144531 -0.75 1.1875 -0.894531 1.1875 -1.09375 L 1.1875 -4.265625 C 1.1875 -4.460938 1.144531 -4.609375 1.0625 -4.703125 C 0.988281 -4.796875 0.890625 -4.859375 0.765625 -4.890625 C 0.640625 -4.921875 0.503906 -4.9375 0.359375 -4.9375 L 0.328125 -4.9375 L 0.328125 -5.359375 L 2.125 -5.359375 L 2.125 -1.140625 C 2.125 -0.929688 2.160156 -0.773438 2.234375 -0.671875 C 2.304688 -0.566406 2.40625 -0.5 2.53125 -0.46875 C 2.65625 -0.4375 2.789062 -0.421875 2.9375 -0.421875 L 3.0625 -0.421875 L 3.0625 0 Z M 1.609375 -6.359375 C 1.453125 -6.359375 1.316406 -6.40625 1.203125 -6.5 C 1.097656 -6.59375 1.046875 -6.753906 1.046875 -6.984375 C 1.046875 -7.210938 1.097656 -7.367188 1.203125 -7.453125 C 1.316406 -7.546875 1.453125 -7.59375 1.609375 -7.59375 C 1.765625 -7.59375 1.898438 -7.546875 2.015625 -7.453125 C 2.128906 -7.367188 2.1875 -7.210938 2.1875 -6.984375 C 2.1875 -6.753906 2.128906 -6.59375 2.015625 -6.5 C 1.898438 -6.40625 1.765625 -6.359375 1.609375 -6.359375 Z "/>
</g>
<g id="glyph-0-6">
<path d="M 0.28125 0 L 0.28125 -0.421875 L 0.40625 -0.421875 C 0.5625 -0.421875 0.695312 -0.4375 0.8125 -0.46875 C 0.925781 -0.5 1.015625 -0.566406 1.078125 -0.671875 C 1.148438 -0.773438 1.1875 -0.929688 1.1875 -1.140625 L 1.1875 -4.265625 C 1.1875 -4.460938 1.148438 -4.609375 1.078125 -4.703125 C 1.015625 -4.796875 0.921875 -4.859375 0.796875 -4.890625 C 0.679688 -4.921875 0.550781 -4.9375 0.40625 -4.9375 L 0.375 -4.9375 L 0.375 -5.359375 L 1.953125 -5.359375 L 2.078125 -4.546875 L 2.125 -4.546875 C 2.332031 -4.921875 2.5625 -5.164062 2.8125 -5.28125 C 3.0625 -5.394531 3.335938 -5.453125 3.640625 -5.453125 C 3.847656 -5.453125 4.046875 -5.421875 4.234375 -5.359375 C 4.429688 -5.304688 4.601562 -5.210938 4.75 -5.078125 C 4.894531 -4.953125 5.007812 -4.773438 5.09375 -4.546875 L 5.171875 -4.546875 C 5.367188 -4.921875 5.601562 -5.164062 5.875 -5.28125 C 6.144531 -5.394531 6.429688 -5.453125 6.734375 -5.453125 C 7.253906 -5.453125 7.65625 -5.296875 7.9375 -4.984375 C 8.226562 -4.679688 8.375 -4.1875 8.375 -3.5 L 8.375 -1.140625 C 8.375 -0.929688 8.40625 -0.773438 8.46875 -0.671875 C 8.53125 -0.566406 8.617188 -0.5 8.734375 -0.46875 C 8.859375 -0.4375 8.992188 -0.421875 9.140625 -0.421875 L 9.171875 -0.421875 L 9.171875 0 L 7.4375 0 L 7.4375 -3.453125 C 7.4375 -3.878906 7.351562 -4.210938 7.1875 -4.453125 C 7.03125 -4.691406 6.757812 -4.8125 6.375 -4.8125 C 6.101562 -4.8125 5.882812 -4.742188 5.71875 -4.609375 C 5.5625 -4.472656 5.445312 -4.289062 5.375 -4.0625 C 5.300781 -3.84375 5.265625 -3.597656 5.265625 -3.328125 L 5.265625 -1.140625 C 5.265625 -0.929688 5.296875 -0.773438 5.359375 -0.671875 C 5.429688 -0.566406 5.523438 -0.5 5.640625 -0.46875 C 5.753906 -0.4375 5.890625 -0.421875 6.046875 -0.421875 L 6.0625 -0.421875 L 6.0625 0 L 4.328125 0 L 4.328125 -3.453125 C 4.328125 -3.878906 4.25 -4.210938 4.09375 -4.453125 C 3.9375 -4.691406 3.664062 -4.8125 3.28125 -4.8125 C 2.988281 -4.8125 2.757812 -4.738281 2.59375 -4.59375 C 2.425781 -4.445312 2.304688 -4.25 2.234375 -4 C 2.160156 -3.75 2.125 -3.484375 2.125 -3.203125 L 2.125 -1.09375 C 2.125 -0.894531 2.160156 -0.75 2.234375 -0.65625 C 2.304688 -0.5625 2.40625 -0.5 2.53125 -0.46875 C 2.65625 -0.4375 2.789062 -0.421875 2.9375 -0.421875 L 2.96875 -0.421875 L 2.96875 0 Z "/>
</g>
<g id="glyph-0-7">
<path d="M 2.046875 0.09375 C 1.753906 0.09375 1.488281 0.0351562 1.25 -0.078125 C 1.019531 -0.191406 0.835938 -0.363281 0.703125 -0.59375 C 0.566406 -0.832031 0.5 -1.132812 0.5 -1.5 C 0.5 -2.03125 0.6875 -2.421875 1.0625 -2.671875 C 1.4375 -2.929688 2.007812 -3.070312 2.78125 -3.09375 L 3.609375 -3.125 L 3.609375 -3.734375 C 3.609375 -3.972656 3.585938 -4.179688 3.546875 -4.359375 C 3.503906 -4.546875 3.414062 -4.691406 3.28125 -4.796875 C 3.15625 -4.898438 2.957031 -4.953125 2.6875 -4.953125 C 2.425781 -4.953125 2.226562 -4.90625 2.09375 -4.8125 C 1.96875 -4.726562 1.878906 -4.601562 1.828125 -4.4375 C 1.785156 -4.269531 1.765625 -4.082031 1.765625 -3.875 C 1.484375 -3.875 1.269531 -3.921875 1.125 -4.015625 C 0.988281 -4.109375 0.921875 -4.269531 0.921875 -4.5 C 0.921875 -4.726562 1 -4.910156 1.15625 -5.046875 C 1.320312 -5.191406 1.539062 -5.296875 1.8125 -5.359375 C 2.09375 -5.421875 2.394531 -5.453125 2.71875 -5.453125 C 3.332031 -5.453125 3.789062 -5.320312 4.09375 -5.0625 C 4.394531 -4.8125 4.546875 -4.367188 4.546875 -3.734375 L 4.546875 -1.140625 C 4.546875 -0.953125 4.566406 -0.804688 4.609375 -0.703125 C 4.648438 -0.597656 4.71875 -0.523438 4.8125 -0.484375 C 4.90625 -0.441406 5.023438 -0.421875 5.171875 -0.421875 L 5.203125 -0.421875 L 5.203125 0 L 3.84375 0 L 3.6875 -0.859375 L 3.609375 -0.859375 C 3.472656 -0.671875 3.335938 -0.503906 3.203125 -0.359375 C 3.066406 -0.222656 2.910156 -0.113281 2.734375 -0.03125 C 2.554688 0.0507812 2.328125 0.09375 2.046875 0.09375 Z M 2.28125 -0.515625 C 2.550781 -0.515625 2.785156 -0.570312 2.984375 -0.6875 C 3.179688 -0.800781 3.332031 -0.960938 3.4375 -1.171875 C 3.550781 -1.378906 3.609375 -1.625 3.609375 -1.90625 L 3.609375 -2.71875 L 2.96875 -2.6875 C 2.59375 -2.675781 2.296875 -2.617188 2.078125 -2.515625 C 1.859375 -2.421875 1.703125 -2.285156 1.609375 -2.109375 C 1.515625 -1.929688 1.46875 -1.710938 1.46875 -1.453125 C 1.46875 -1.242188 1.5 -1.070312 1.5625 -0.9375 C 1.625 -0.800781 1.710938 -0.695312 1.828125 -0.625 C 1.953125 -0.550781 2.101562 -0.515625 2.28125 -0.515625 Z "/>
</g>
<g id="glyph-0-8">
<path d="M 2.828125 0.09375 C 2.390625 0.09375 2 0.00390625 1.65625 -0.171875 C 1.3125 -0.359375 1.039062 -0.65625 0.84375 -1.0625 C 0.644531 -1.46875 0.546875 -2 0.546875 -2.65625 C 0.546875 -3.363281 0.644531 -3.921875 0.84375 -4.328125 C 1.039062 -4.742188 1.304688 -5.035156 1.640625 -5.203125 C 1.984375 -5.367188 2.363281 -5.453125 2.78125 -5.453125 C 3.0625 -5.453125 3.332031 -5.414062 3.59375 -5.34375 C 3.863281 -5.269531 4.082031 -5.160156 4.25 -5.015625 C 4.425781 -4.867188 4.515625 -4.675781 4.515625 -4.4375 C 4.515625 -4.28125 4.476562 -4.15625 4.40625 -4.0625 C 4.34375 -3.976562 4.25 -3.914062 4.125 -3.875 C 4 -3.832031 3.832031 -3.8125 3.625 -3.8125 C 3.625 -4.019531 3.597656 -4.210938 3.546875 -4.390625 C 3.503906 -4.566406 3.421875 -4.703125 3.296875 -4.796875 C 3.179688 -4.898438 3.007812 -4.953125 2.78125 -4.953125 C 2.53125 -4.953125 2.304688 -4.882812 2.109375 -4.75 C 1.921875 -4.625 1.773438 -4.394531 1.671875 -4.0625 C 1.566406 -3.726562 1.515625 -3.257812 1.515625 -2.65625 C 1.515625 -2.1875 1.566406 -1.796875 1.671875 -1.484375 C 1.773438 -1.171875 1.9375 -0.9375 2.15625 -0.78125 C 2.375 -0.625 2.664062 -0.546875 3.03125 -0.546875 C 3.238281 -0.546875 3.425781 -0.578125 3.59375 -0.640625 C 3.769531 -0.703125 3.921875 -0.785156 4.046875 -0.890625 C 4.179688 -0.992188 4.285156 -1.113281 4.359375 -1.25 C 4.410156 -1.207031 4.453125 -1.15625 4.484375 -1.09375 C 4.515625 -1.03125 4.53125 -0.953125 4.53125 -0.859375 C 4.53125 -0.703125 4.46875 -0.550781 4.34375 -0.40625 C 4.21875 -0.257812 4.03125 -0.140625 3.78125 -0.046875 C 3.53125 0.046875 3.210938 0.09375 2.828125 0.09375 Z "/>
</g>
<g id="glyph-0-9">
<path d="M 2.875 0.09375 C 2.15625 0.09375 1.585938 -0.132812 1.171875 -0.59375 C 0.753906 -1.050781 0.546875 -1.75 0.546875 -2.6875 C 0.546875 -3.625 0.742188 -4.316406 1.140625 -4.765625 C 1.535156 -5.222656 2.125 -5.453125 2.90625 -5.453125 C 3.625 -5.453125 4.1875 -5.222656 4.59375 -4.765625 C 5.007812 -4.316406 5.21875 -3.625 5.21875 -2.6875 C 5.21875 -1.75 5.019531 -1.050781 4.625 -0.59375 C 4.226562 -0.132812 3.644531 0.09375 2.875 0.09375 Z M 2.890625 -0.421875 C 3.222656 -0.421875 3.488281 -0.503906 3.6875 -0.671875 C 3.882812 -0.847656 4.023438 -1.101562 4.109375 -1.4375 C 4.203125 -1.78125 4.25 -2.195312 4.25 -2.6875 C 4.25 -3.4375 4.144531 -4 3.9375 -4.375 C 3.726562 -4.75 3.375 -4.9375 2.875 -4.9375 C 2.375 -4.9375 2.019531 -4.75 1.8125 -4.375 C 1.613281 -4 1.515625 -3.4375 1.515625 -2.6875 C 1.515625 -1.9375 1.617188 -1.367188 1.828125 -0.984375 C 2.035156 -0.609375 2.390625 -0.421875 2.890625 -0.421875 Z M 2.5 -6.1875 C 2.59375 -6.3125 2.691406 -6.460938 2.796875 -6.640625 C 2.910156 -6.816406 3.015625 -6.992188 3.109375 -7.171875 C 3.210938 -7.347656 3.296875 -7.507812 3.359375 -7.65625 L 4.4375 -7.65625 L 4.4375 -7.5625 C 4.375 -7.476562 4.28125 -7.367188 4.15625 -7.234375 C 4.039062 -7.097656 3.90625 -6.957031 3.75 -6.8125 C 3.601562 -6.664062 3.453125 -6.523438 3.296875 -6.390625 C 3.148438 -6.265625 3.007812 -6.15625 2.875 -6.0625 L 2.5 -6.0625 Z "/>
</g>
<g id="glyph-0-10">
<path d="M 0.28125 0 L 0.28125 -0.421875 L 0.359375 -0.421875 C 0.515625 -0.421875 0.648438 -0.4375 0.765625 -0.46875 C 0.890625 -0.5 0.988281 -0.566406 1.0625 -0.671875 C 1.144531 -0.773438 1.1875 -0.929688 1.1875 -1.140625 L 1.1875 -4.265625 C 1.1875 -4.460938 1.144531 -4.609375 1.0625 -4.703125 C 0.988281 -4.796875 0.890625 -4.859375 0.765625 -4.890625 C 0.648438 -4.921875 0.519531 -4.9375 0.375 -4.9375 L 0.328125 -4.9375 L 0.328125 -5.359375 L 1.953125 -5.359375 L 2.078125 -4.546875 L 2.125 -4.546875 C 2.332031 -4.921875 2.5625 -5.164062 2.8125 -5.28125 C 3.070312 -5.394531 3.363281 -5.453125 3.6875 -5.453125 C 4.21875 -5.453125 4.628906 -5.296875 4.921875 -4.984375 C 5.222656 -4.679688 5.375 -4.1875 5.375 -3.5 L 5.375 -1.140625 C 5.375 -0.929688 5.40625 -0.773438 5.46875 -0.671875 C 5.53125 -0.566406 5.617188 -0.5 5.734375 -0.46875 C 5.847656 -0.4375 5.976562 -0.421875 6.125 -0.421875 L 6.171875 -0.421875 L 6.171875 0 L 4.4375 0 L 4.4375 -3.453125 C 4.4375 -3.878906 4.351562 -4.210938 4.1875 -4.453125 C 4.019531 -4.691406 3.734375 -4.8125 3.328125 -4.8125 C 3.023438 -4.8125 2.785156 -4.738281 2.609375 -4.59375 C 2.429688 -4.445312 2.304688 -4.25 2.234375 -4 C 2.160156 -3.75 2.125 -3.484375 2.125 -3.203125 L 2.125 -1.09375 C 2.125 -0.894531 2.160156 -0.75 2.234375 -0.65625 C 2.304688 -0.5625 2.398438 -0.5 2.515625 -0.46875 C 2.640625 -0.4375 2.773438 -0.421875 2.921875 -0.421875 L 2.96875 -0.421875 L 2.96875 0 Z "/>
</g>
<g id="glyph-0-11">
</g>
<g id="glyph-0-12">
<path d="M 0.375 0 L 0.375 -0.421875 L 0.515625 -0.421875 C 0.660156 -0.421875 0.796875 -0.4375 0.921875 -0.46875 C 1.046875 -0.5 1.144531 -0.566406 1.21875 -0.671875 C 1.289062 -0.773438 1.328125 -0.929688 1.328125 -1.140625 L 1.328125 -6 C 1.328125 -6.207031 1.289062 -6.363281 1.21875 -6.46875 C 1.144531 -6.570312 1.046875 -6.640625 0.921875 -6.671875 C 0.796875 -6.703125 0.660156 -6.71875 0.515625 -6.71875 L 0.375 -6.71875 L 0.375 -7.140625 L 3.296875 -7.140625 L 3.296875 -6.71875 L 3.15625 -6.71875 C 3.007812 -6.71875 2.875 -6.703125 2.75 -6.671875 C 2.625 -6.640625 2.523438 -6.578125 2.453125 -6.484375 C 2.378906 -6.390625 2.34375 -6.242188 2.34375 -6.046875 L 2.34375 -0.5 L 4.3125 -0.5 C 4.507812 -0.5 4.671875 -0.539062 4.796875 -0.625 C 4.921875 -0.71875 5.007812 -0.832031 5.0625 -0.96875 C 5.125 -1.113281 5.164062 -1.257812 5.1875 -1.40625 L 5.296875 -2.15625 L 5.8125 -2.15625 L 5.734375 0 Z "/>
</g>
<g id="glyph-0-13">
<path d="M 2.875 0.09375 C 2.144531 0.09375 1.570312 -0.144531 1.15625 -0.625 C 0.75 -1.101562 0.546875 -1.773438 0.546875 -2.640625 C 0.546875 -3.578125 0.738281 -4.28125 1.125 -4.75 C 1.507812 -5.21875 2.054688 -5.453125 2.765625 -5.453125 C 3.410156 -5.453125 3.914062 -5.253906 4.28125 -4.859375 C 4.65625 -4.460938 4.84375 -3.863281 4.84375 -3.0625 L 4.84375 -2.609375 L 1.515625 -2.609375 C 1.535156 -1.878906 1.671875 -1.347656 1.921875 -1.015625 C 2.171875 -0.691406 2.535156 -0.53125 3.015625 -0.53125 C 3.359375 -0.53125 3.648438 -0.597656 3.890625 -0.734375 C 4.140625 -0.878906 4.320312 -1.046875 4.4375 -1.234375 C 4.488281 -1.210938 4.53125 -1.171875 4.5625 -1.109375 C 4.601562 -1.046875 4.625 -0.972656 4.625 -0.890625 C 4.625 -0.753906 4.5625 -0.609375 4.4375 -0.453125 C 4.3125 -0.304688 4.117188 -0.175781 3.859375 -0.0625 C 3.597656 0.0390625 3.269531 0.09375 2.875 0.09375 Z M 3.84375 -3.15625 C 3.84375 -3.6875 3.757812 -4.113281 3.59375 -4.4375 C 3.425781 -4.757812 3.144531 -4.921875 2.75 -4.921875 C 2.382812 -4.921875 2.097656 -4.769531 1.890625 -4.46875 C 1.691406 -4.164062 1.578125 -3.726562 1.546875 -3.15625 Z "/>
</g>
<g id="glyph-0-14">
<path d="M 0.125 0 L 0.125 -0.421875 L 0.265625 -0.421875 C 0.410156 -0.421875 0.546875 -0.4375 0.671875 -0.46875 C 0.796875 -0.5 0.894531 -0.566406 0.96875 -0.671875 C 1.039062 -0.773438 1.078125 -0.929688 1.078125 -1.140625 L 1.078125 -6.5 C 1.078125 -6.695312 1.035156 -6.84375 0.953125 -6.9375 C 0.878906 -7.039062 0.78125 -7.109375 0.65625 -7.140625 C 0.539062 -7.171875 0.410156 -7.1875 0.265625 -7.1875 L 0.125 -7.1875 L 0.125 -7.59375 L 2.015625 -7.59375 L 2.015625 -1.140625 C 2.015625 -0.929688 2.050781 -0.773438 2.125 -0.671875 C 2.195312 -0.566406 2.296875 -0.5 2.421875 -0.46875 C 2.554688 -0.4375 2.695312 -0.421875 2.84375 -0.421875 L 2.96875 -0.421875 L 2.96875 0 Z "/>
</g>
<g id="glyph-0-15">
<path d="M 2.59375 0.09375 C 2.15625 0.09375 1.78125 0 1.46875 -0.1875 C 1.164062 -0.382812 0.9375 -0.6875 0.78125 -1.09375 C 0.625 -1.5 0.546875 -2.023438 0.546875 -2.671875 C 0.546875 -3.316406 0.625 -3.84375 0.78125 -4.25 C 0.9375 -4.664062 1.164062 -4.96875 1.46875 -5.15625 C 1.78125 -5.351562 2.15625 -5.453125 2.59375 -5.453125 C 2.976562 -5.453125 3.289062 -5.367188 3.53125 -5.203125 C 3.78125 -5.046875 3.976562 -4.835938 4.125 -4.578125 L 4.1875 -4.578125 C 4.164062 -4.742188 4.148438 -4.925781 4.140625 -5.125 C 4.128906 -5.332031 4.125 -5.519531 4.125 -5.6875 L 4.125 -6.5 C 4.125 -6.695312 4.082031 -6.84375 4 -6.9375 C 3.925781 -7.039062 3.828125 -7.109375 3.703125 -7.140625 C 3.578125 -7.171875 3.441406 -7.1875 3.296875 -7.1875 L 3.21875 -7.1875 L 3.21875 -7.59375 L 5.0625 -7.59375 L 5.0625 -1.09375 C 5.0625 -0.90625 5.097656 -0.757812 5.171875 -0.65625 C 5.253906 -0.5625 5.351562 -0.5 5.46875 -0.46875 C 5.59375 -0.4375 5.726562 -0.421875 5.875 -0.421875 L 5.953125 -0.421875 L 5.953125 0 L 4.265625 0 L 4.15625 -0.90625 L 4.125 -0.90625 C 3.976562 -0.59375 3.785156 -0.347656 3.546875 -0.171875 C 3.304688 0.00390625 2.988281 0.09375 2.59375 0.09375 Z M 2.765625 -0.546875 C 3.285156 -0.546875 3.640625 -0.71875 3.828125 -1.0625 C 4.023438 -1.414062 4.125 -1.953125 4.125 -2.671875 C 4.125 -3.359375 4.023438 -3.882812 3.828125 -4.25 C 3.640625 -4.625 3.28125 -4.8125 2.75 -4.8125 C 2.457031 -4.8125 2.21875 -4.726562 2.03125 -4.5625 C 1.851562 -4.394531 1.722656 -4.148438 1.640625 -3.828125 C 1.554688 -3.515625 1.515625 -3.125 1.515625 -2.65625 C 1.515625 -1.945312 1.609375 -1.414062 1.796875 -1.0625 C 1.992188 -0.71875 2.316406 -0.546875 2.765625 -0.546875 Z "/>
</g>
<g id="glyph-0-16">
<path d="M 2.40625 0.09375 C 1.894531 0.09375 1.523438 -0.0195312 1.296875 -0.25 C 1.066406 -0.476562 0.953125 -0.878906 0.953125 -1.453125 L 0.953125 -4.796875 L 0.1875 -4.796875 L 0.1875 -5.1875 C 0.3125 -5.1875 0.445312 -5.210938 0.59375 -5.265625 C 0.738281 -5.316406 0.863281 -5.398438 0.96875 -5.515625 C 1.082031 -5.628906 1.175781 -5.769531 1.25 -5.9375 C 1.320312 -6.113281 1.382812 -6.332031 1.4375 -6.59375 L 1.890625 -6.59375 L 1.890625 -5.359375 L 3.203125 -5.359375 L 3.203125 -4.796875 L 1.890625 -4.796875 L 1.890625 -1.421875 C 1.890625 -1.078125 1.957031 -0.828125 2.09375 -0.671875 C 2.238281 -0.515625 2.425781 -0.4375 2.65625 -0.4375 C 2.769531 -0.4375 2.875 -0.441406 2.96875 -0.453125 C 3.070312 -0.460938 3.179688 -0.476562 3.296875 -0.5 L 3.296875 -0.0625 C 3.203125 -0.0195312 3.066406 0.015625 2.890625 0.046875 C 2.722656 0.078125 2.5625 0.09375 2.40625 0.09375 Z "/>
</g>
<g id="glyph-0-17">
<path d="M 0.375 0 L 0.375 -0.421875 L 0.515625 -0.421875 C 0.660156 -0.421875 0.796875 -0.4375 0.921875 -0.46875 C 1.046875 -0.5 1.144531 -0.566406 1.21875 -0.671875 C 1.289062 -0.773438 1.328125 -0.929688 1.328125 -1.140625 L 1.328125 -6.046875 C 1.328125 -6.242188 1.285156 -6.390625 1.203125 -6.484375 C 1.128906 -6.578125 1.03125 -6.640625 0.90625 -6.671875 C 0.789062 -6.703125 0.660156 -6.71875 0.515625 -6.71875 L 0.375 -6.71875 L 0.375 -7.140625 L 3.4375 -7.140625 C 4.125 -7.140625 4.710938 -7 5.203125 -6.71875 C 5.691406 -6.445312 6.0625 -6.046875 6.3125 -5.515625 C 6.570312 -4.984375 6.703125 -4.335938 6.703125 -3.578125 C 6.703125 -2.847656 6.578125 -2.210938 6.328125 -1.671875 C 6.085938 -1.140625 5.726562 -0.726562 5.25 -0.4375 C 4.769531 -0.144531 4.164062 0 3.4375 0 Z M 3.203125 -0.515625 C 3.742188 -0.515625 4.1875 -0.628906 4.53125 -0.859375 C 4.882812 -1.097656 5.148438 -1.445312 5.328125 -1.90625 C 5.503906 -2.363281 5.59375 -2.921875 5.59375 -3.578125 C 5.59375 -4.234375 5.503906 -4.789062 5.328125 -5.25 C 5.148438 -5.707031 4.882812 -6.050781 4.53125 -6.28125 C 4.1875 -6.519531 3.75 -6.640625 3.21875 -6.640625 L 2.34375 -6.640625 L 2.34375 -0.515625 Z "/>
</g>
<g id="glyph-0-18">
<path d="M 0.78125 -4.40625 C 0.726562 -4.550781 0.671875 -4.660156 0.609375 -4.734375 C 0.546875 -4.804688 0.46875 -4.859375 0.375 -4.890625 C 0.289062 -4.921875 0.179688 -4.9375 0.046875 -4.9375 L 0.046875 -5.359375 L 2.546875 -5.359375 L 2.546875 -4.9375 L 2.40625 -4.9375 C 2.207031 -4.9375 2.054688 -4.894531 1.953125 -4.8125 C 1.859375 -4.738281 1.8125 -4.617188 1.8125 -4.453125 C 1.8125 -4.398438 1.816406 -4.34375 1.828125 -4.28125 C 1.835938 -4.226562 1.859375 -4.164062 1.890625 -4.09375 L 2.5625 -2.203125 C 2.625 -2.035156 2.6875 -1.859375 2.75 -1.671875 C 2.8125 -1.484375 2.863281 -1.300781 2.90625 -1.125 C 2.957031 -0.957031 3.003906 -0.816406 3.046875 -0.703125 C 3.078125 -0.835938 3.144531 -1.035156 3.25 -1.296875 C 3.351562 -1.566406 3.453125 -1.820312 3.546875 -2.0625 L 4.265625 -4.015625 C 4.296875 -4.097656 4.316406 -4.175781 4.328125 -4.25 C 4.335938 -4.332031 4.34375 -4.398438 4.34375 -4.453125 C 4.34375 -4.617188 4.285156 -4.738281 4.171875 -4.8125 C 4.066406 -4.894531 3.90625 -4.9375 3.6875 -4.9375 L 3.625 -4.9375 L 3.625 -5.359375 L 5.765625 -5.359375 L 5.765625 -4.9375 L 5.640625 -4.9375 C 5.515625 -4.9375 5.410156 -4.914062 5.328125 -4.875 C 5.242188 -4.832031 5.164062 -4.753906 5.09375 -4.640625 C 5.03125 -4.535156 4.957031 -4.375 4.875 -4.15625 L 3.296875 0 L 2.390625 0 Z "/>
</g>
<g id="glyph-0-19">
<path d="M 2.09375 0.09375 C 1.757812 0.09375 1.46875 0.0546875 1.21875 -0.015625 C 0.976562 -0.0976562 0.789062 -0.21875 0.65625 -0.375 C 0.519531 -0.53125 0.453125 -0.722656 0.453125 -0.953125 C 0.453125 -1.140625 0.488281 -1.28125 0.5625 -1.375 C 0.632812 -1.476562 0.71875 -1.550781 0.8125 -1.59375 C 0.90625 -1.632812 0.992188 -1.65625 1.078125 -1.65625 C 1.078125 -1.300781 1.15625 -1 1.3125 -0.75 C 1.46875 -0.5 1.75 -0.375 2.15625 -0.375 C 2.507812 -0.375 2.78125 -0.457031 2.96875 -0.625 C 3.164062 -0.800781 3.265625 -1.023438 3.265625 -1.296875 C 3.265625 -1.460938 3.226562 -1.597656 3.15625 -1.703125 C 3.082031 -1.804688 2.957031 -1.910156 2.78125 -2.015625 C 2.601562 -2.117188 2.351562 -2.238281 2.03125 -2.375 C 1.6875 -2.53125 1.398438 -2.679688 1.171875 -2.828125 C 0.953125 -2.972656 0.785156 -3.140625 0.671875 -3.328125 C 0.566406 -3.515625 0.515625 -3.753906 0.515625 -4.046875 C 0.515625 -4.492188 0.6875 -4.835938 1.03125 -5.078125 C 1.375 -5.328125 1.832031 -5.453125 2.40625 -5.453125 C 2.71875 -5.453125 2.984375 -5.410156 3.203125 -5.328125 C 3.421875 -5.242188 3.582031 -5.128906 3.6875 -4.984375 C 3.800781 -4.847656 3.859375 -4.695312 3.859375 -4.53125 C 3.859375 -4.351562 3.796875 -4.207031 3.671875 -4.09375 C 3.546875 -3.988281 3.367188 -3.9375 3.140625 -3.9375 C 3.140625 -4.269531 3.066406 -4.523438 2.921875 -4.703125 C 2.785156 -4.890625 2.570312 -4.984375 2.28125 -4.984375 C 1.9375 -4.984375 1.691406 -4.910156 1.546875 -4.765625 C 1.398438 -4.617188 1.328125 -4.425781 1.328125 -4.1875 C 1.328125 -3.9375 1.421875 -3.742188 1.609375 -3.609375 C 1.804688 -3.472656 2.125 -3.3125 2.5625 -3.125 C 2.914062 -2.976562 3.203125 -2.832031 3.421875 -2.6875 C 3.648438 -2.539062 3.8125 -2.367188 3.90625 -2.171875 C 4.007812 -1.984375 4.0625 -1.75 4.0625 -1.46875 C 4.0625 -0.945312 3.878906 -0.554688 3.515625 -0.296875 C 3.160156 -0.0351562 2.6875 0.09375 2.09375 0.09375 Z "/>
</g>
</g>
</defs>
<g fill="rgb(100%, 100%, 100%)" fill-opacity="1">
<use xlink:href="#glyph-0-0" x="30" y="30.69043"/>
<use xlink:href="#glyph-0-1" x="37" y="30.69043"/>
<use xlink:href="#glyph-0-2" x="43" y="30.69043"/>
<use xlink:href="#glyph-0-3" x="48" y="30.69043"/>
<use xlink:href="#glyph-0-4" x="54" y="30.69043"/>
<use xlink:href="#glyph-0-5" x="60" y="30.69043"/>
<use xlink:href="#glyph-0-6" x="63" y="30.69043"/>
<use xlink:href="#glyph-0-7" x="72" y="30.69043"/>
<use xlink:href="#glyph-0-8" x="78" y="30.69043"/>
<use xlink:href="#glyph-0-5" x="83" y="30.69043"/>
<use xlink:href="#glyph-0-9" x="86" y="30.69043"/>
<use xlink:href="#glyph-0-10" x="92" y="30.69043"/>
<use xlink:href="#glyph-0-11" x="98" y="30.69043"/>
<use xlink:href="#glyph-0-12" x="101" y="30.69043"/>
<use xlink:href="#glyph-0-5" x="107" y="30.69043"/>
<use xlink:href="#glyph-0-10" x="110" y="30.69043"/>
<use xlink:href="#glyph-0-13" x="116" y="30.69043"/>
<use xlink:href="#glyph-0-7" x="121" y="30.69043"/>
<use xlink:href="#glyph-0-14" x="127" y="30.69043"/>
<use xlink:href="#glyph-0-11" x="130" y="30.69043"/>
<use xlink:href="#glyph-0-6" x="133" y="30.69043"/>
<use xlink:href="#glyph-0-13" x="142" y="30.69043"/>
<use xlink:href="#glyph-0-15" x="147" y="30.69043"/>
<use xlink:href="#glyph-0-5" x="153" y="30.69043"/>
<use xlink:href="#glyph-0-7" x="156" y="30.69043"/>
<use xlink:href="#glyph-0-10" x="162" y="30.69043"/>
<use xlink:href="#glyph-0-16" x="168" y="30.69043"/>
<use xlink:href="#glyph-0-13" x="172" y="30.69043"/>
<use xlink:href="#glyph-0-11" x="177" y="30.69043"/>
<use xlink:href="#glyph-0-17" x="180" y="30.69043"/>
<use xlink:href="#glyph-0-13" x="187" y="30.69043"/>
<use xlink:href="#glyph-0-2" x="192" y="30.69043"/>
<use xlink:href="#glyph-0-5" x="197" y="30.69043"/>
<use xlink:href="#glyph-0-18" x="200" y="30.69043"/>
<use xlink:href="#glyph-0-7" x="206" y="30.69043"/>
<use xlink:href="#glyph-0-15" x="212" y="30.69043"/>
<use xlink:href="#glyph-0-7" x="218" y="30.69043"/>
<use xlink:href="#glyph-0-19" x="224" y="30.69043"/>
</g>
</svg>
