<?xml version="1.0" encoding="UTF-8"?>
<svg xmlns="http://www.w3.org/2000/svg" xmlns:xlink="http://www.w3.org/1999/xlink" width="1920" height="1080" viewBox="0 0 1920 1080">
<defs>
<g>
<g id="glyph-0-0">
<path d="M 0.234375 0 L 0.234375 -0.25 L 0.3125 -0.25 C 0.40625 -0.25 0.488281 -0.257812 0.5625 -0.28125 C 0.632812 -0.300781 0.691406 -0.335938 0.734375 -0.390625 C 0.785156 -0.453125 0.8125 -0.546875 0.8125 -0.671875 L 0.8125 -3.671875 C 0.8125 -3.796875 0.785156 -3.890625 0.734375 -3.953125 C 0.691406 -4.015625 0.632812 -4.054688 0.5625 -4.078125 C 0.488281 -4.097656 0.40625 -4.109375 0.3125 -4.109375 L 0.234375 -4.109375 L 0.234375 -4.359375 L 3.3125 -4.359375 L 3.34375 -3.296875 L 3.03125 -3.296875 L 3 -3.5625 C 2.988281 -3.644531 2.960938 -3.722656 2.921875 -3.796875 C 2.878906 -3.878906 2.820312 -3.941406 2.75 -3.984375 C 2.675781 -4.035156 2.578125 -4.0625 2.453125 -4.0625 L 1.421875 -4.0625 L 1.421875 -2.4375 L 2.90625 -2.4375 L 2.90625 -2.125 L 1.421875 -2.125 L 1.421875 -0.3125 L 2.609375 -0.3125 C 2.734375 -0.3125 2.835938 -0.332031 2.921875 -0.375 C 3.003906 -0.425781 3.066406 -0.488281 3.109375 -0.5625 C 3.148438 -0.632812 3.175781 -0.71875 3.1875 -0.8125 L 3.234375 -1.0625 L 3.546875 -1.0625 L 3.5 0 Z "/>
</g>
<g id="glyph-0-1">
<path d="M 0.203125 0 L 0.203125 -0.25 L 0.21875 -0.25 C 0.3125 -0.25 0.394531 -0.257812 0.46875 -0.28125 C 0.550781 -0.300781 0.613281 -0.34375 0.65625 -0.40625 C 0.695312 -0.46875 0.71875 -0.566406 0.71875 -0.703125 L 0.71875 -2.609375 C 0.71875 -2.722656 0.691406 -2.8125 0.640625 -2.875 C 0.597656 -2.9375 0.539062 -2.972656 0.46875 -2.984375 C 0.394531 -3.003906 0.3125 -3.015625 0.21875 -3.015625 L 0.203125 -3.015625 L 0.203125 -3.28125 L 1.140625 -3.28125 L 1.265625 -2.671875 L 1.296875 -2.671875 C 1.347656 -2.796875 1.398438 -2.90625 1.453125 -3 C 1.515625 -3.101562 1.597656 -3.179688 1.703125 -3.234375 C 1.804688 -3.296875 1.945312 -3.328125 2.125 -3.328125 C 2.351562 -3.328125 2.519531 -3.289062 2.625 -3.21875 C 2.726562 -3.144531 2.78125 -3.035156 2.78125 -2.890625 C 2.78125 -2.765625 2.734375 -2.660156 2.640625 -2.578125 C 2.554688 -2.492188 2.414062 -2.453125 2.21875 -2.453125 C 2.21875 -2.566406 2.207031 -2.65625 2.1875 -2.71875 C 2.164062 -2.789062 2.128906 -2.84375 2.078125 -2.875 C 2.035156 -2.914062 1.972656 -2.9375 1.890625 -2.9375 C 1.773438 -2.9375 1.675781 -2.890625 1.59375 -2.796875 C 1.519531 -2.703125 1.460938 -2.585938 1.421875 -2.453125 C 1.378906 -2.316406 1.347656 -2.171875 1.328125 -2.015625 C 1.304688 -1.867188 1.296875 -1.738281 1.296875 -1.625 L 1.296875 -0.671875 C 1.296875 -0.546875 1.316406 -0.453125 1.359375 -0.390625 C 1.410156 -0.335938 1.472656 -0.300781 1.546875 -0.28125 C 1.617188 -0.257812 1.703125 -0.25 1.796875 -0.25 L 1.96875 -0.25 L 1.96875 0 Z "/>
</g>
<g id="glyph-0-2">
<path d="M 1.75 0.0625 C 1.3125 0.0625 0.96875 -0.078125 0.71875 -0.359375 C 0.46875 -0.640625 0.34375 -1.066406 0.34375 -1.640625 C 0.34375 -2.210938 0.460938 -2.632812 0.703125 -2.90625 C 0.941406 -3.1875 1.296875 -3.328125 1.765625 -3.328125 C 2.210938 -3.328125 2.5625 -3.1875 2.8125 -2.90625 C 3.0625 -2.632812 3.1875 -2.210938 3.1875 -1.640625 C 3.1875 -1.066406 3.066406 -0.640625 2.828125 -0.359375 C 2.585938 -0.078125 2.226562 0.0625 1.75 0.0625 Z M 1.765625 -0.25 C 1.972656 -0.25 2.132812 -0.300781 2.25 -0.40625 C 2.375 -0.507812 2.460938 -0.664062 2.515625 -0.875 C 2.566406 -1.082031 2.59375 -1.335938 2.59375 -1.640625 C 2.59375 -2.097656 2.53125 -2.441406 2.40625 -2.671875 C 2.28125 -2.898438 2.066406 -3.015625 1.765625 -3.015625 C 1.453125 -3.015625 1.234375 -2.898438 1.109375 -2.671875 C 0.984375 -2.441406 0.921875 -2.097656 0.921875 -1.640625 C 0.921875 -1.179688 0.984375 -0.832031 1.109375 -0.59375 C 1.242188 -0.363281 1.460938 -0.25 1.765625 -0.25 Z "/>
</g>
<g id="glyph-0-3">
</g>
<g id="glyph-0-4">
<path d="M 0.390625 -2.609375 L 0.390625 -2.96875 L 3.015625 -2.96875 L 3.015625 -2.609375 Z M 0.390625 -1.40625 L 0.390625 -1.765625 L 3.015625 -1.765625 L 3.015625 -1.40625 Z "/>
</g>
<g id="glyph-0-5">
<path d="M 1.3125 0 L 1.3125 -0.25 L 1.484375 -0.25 C 1.578125 -0.25 1.660156 -0.257812 1.734375 -0.28125 C 1.804688 -0.300781 1.863281 -0.34375 1.90625 -0.40625 C 1.957031 -0.46875 1.984375 -0.566406 1.984375 -0.703125 L 1.984375 -1.203125 L 0.109375 -1.203125 L 0.109375 -1.453125 L 1.984375 -4.359375 L 2.578125 -4.359375 L 2.578125 -1.546875 L 3.328125 -1.546875 L 3.328125 -1.203125 L 2.578125 -1.203125 L 2.578125 -0.703125 C 2.578125 -0.566406 2.597656 -0.46875 2.640625 -0.40625 C 2.679688 -0.34375 2.738281 -0.300781 2.8125 -0.28125 C 2.894531 -0.257812 2.984375 -0.25 3.078125 -0.25 L 3.15625 -0.25 L 3.15625 0 Z M 0.546875 -1.546875 L 1.984375 -1.546875 L 1.984375 -2.671875 C 1.984375 -2.785156 1.984375 -2.914062 1.984375 -3.0625 C 1.984375 -3.21875 1.988281 -3.367188 2 -3.515625 C 2.007812 -3.671875 2.019531 -3.8125 2.03125 -3.9375 C 2.007812 -3.894531 1.972656 -3.832031 1.921875 -3.75 C 1.878906 -3.664062 1.828125 -3.578125 1.765625 -3.484375 C 1.710938 -3.390625 1.660156 -3.296875 1.609375 -3.203125 C 1.554688 -3.117188 1.515625 -3.050781 1.484375 -3 Z "/>
</g>
<g id="glyph-0-6">
<path d="M 0.765625 0.046875 C 0.660156 0.046875 0.566406 0.015625 0.484375 -0.046875 C 0.410156 -0.109375 0.375 -0.21875 0.375 -0.375 C 0.375 -0.53125 0.410156 -0.632812 0.484375 -0.6875 C 0.566406 -0.75 0.660156 -0.78125 0.765625 -0.78125 C 0.867188 -0.78125 0.957031 -0.75 1.03125 -0.6875 C 1.113281 -0.632812 1.15625 -0.53125 1.15625 -0.375 C 1.15625 -0.21875 1.113281 -0.109375 1.03125 -0.046875 C 0.957031 0.015625 0.867188 0.046875 0.765625 0.046875 Z "/>
</g>
<g id="glyph-0-7">
<path d="M 1.703125 0.0625 C 1.367188 0.0625 1.097656 -0.03125 0.890625 -0.21875 C 0.679688 -0.40625 0.523438 -0.664062 0.421875 -1 C 0.328125 -1.34375 0.28125 -1.738281 0.28125 -2.1875 C 0.28125 -2.644531 0.328125 -3.039062 0.421875 -3.375 C 0.523438 -3.707031 0.679688 -3.960938 0.890625 -4.140625 C 1.097656 -4.328125 1.375 -4.421875 1.71875 -4.421875 C 2.03125 -4.421875 2.289062 -4.328125 2.5 -4.140625 C 2.71875 -3.960938 2.878906 -3.703125 2.984375 -3.359375 C 3.085938 -3.023438 3.140625 -2.632812 3.140625 -2.1875 C 3.140625 -1.738281 3.085938 -1.34375 2.984375 -1 C 2.878906 -0.664062 2.71875 -0.40625 2.5 -0.21875 C 2.289062 -0.03125 2.023438 0.0625 1.703125 0.0625 Z M 1.703125 -0.265625 C 1.910156 -0.265625 2.070312 -0.34375 2.1875 -0.5 C 2.300781 -0.65625 2.378906 -0.875 2.421875 -1.15625 C 2.472656 -1.4375 2.5 -1.78125 2.5 -2.1875 C 2.5 -2.59375 2.472656 -2.9375 2.421875 -3.21875 C 2.378906 -3.5 2.300781 -3.710938 2.1875 -3.859375 C 2.070312 -4.015625 1.914062 -4.09375 1.71875 -4.09375 C 1.519531 -4.09375 1.359375 -4.015625 1.234375 -3.859375 C 1.117188 -3.710938 1.035156 -3.5 0.984375 -3.21875 C 0.929688 -2.9375 0.90625 -2.59375 0.90625 -2.1875 C 0.90625 -1.78125 0.929688 -1.4375 0.984375 -1.15625 C 1.035156 -0.875 1.117188 -0.65625 1.234375 -0.5 C 1.359375 -0.34375 1.515625 -0.265625 1.703125 -0.265625 Z "/>
</g>
</g>
</defs>
<g fill="rgb(98.823529%, 38.431373%, 33.333333%)" fill-opacity="1">
<use xlink:href="#glyph-0-0" x="30" y="26.532227"/>
<use xlink:href="#glyph-0-1" x="34" y="26.532227"/>
<use xlink:href="#glyph-0-1" x="37" y="26.532227"/>
<use xlink:href="#glyph-0-2" x="40" y="26.532227"/>
<use xlink:href="#glyph-0-1" x="44" y="26.532227"/>
<use xlink:href="#glyph-0-3" x="47" y="26.532227"/>
<use xlink:href="#glyph-0-4" x="49" y="26.532227"/>
<use xlink:href="#glyph-0-3" x="52" y="26.532227"/>
<use xlink:href="#glyph-0-5" x="54" y="26.532227"/>
<use xlink:href="#glyph-0-6" x="57" y="26.532227"/>
<use xlink:href="#glyph-0-7" x="59" y="26.532227"/>
<use xlink:href="#glyph-0-7" x="62" y="26.532227"/>
</g>
</svg>
