<?xml version="1.0" encoding="UTF-8"?>
<svg xmlns="http://www.w3.org/2000/svg" xmlns:xlink="http://www.w3.org/1999/xlink" width="1920" height="1080" viewBox="0 0 1920 1080">
<defs>
<g>
<g id="glyph-0-0">
<path d="M 0.109375 0 L 0.109375 -0.25 L 0.15625 -0.25 C 0.25 -0.25 0.332031 -0.257812 0.40625 -0.28125 C 0.488281 -0.300781 0.550781 -0.34375 0.59375 -0.40625 C 0.632812 -0.46875 0.65625 -0.566406 0.65625 -0.703125 L 0.65625 -3.96875 C 0.65625 -4.09375 0.628906 -4.179688 0.578125 -4.234375 C 0.535156 -4.296875 0.476562 -4.335938 0.40625 -4.359375 C 0.332031 -4.378906 0.25 -4.390625 0.15625 -4.390625 L 0.109375 -4.390625 L 0.109375 -4.640625 L 1.234375 -4.640625 L 1.234375 -3.296875 C 1.234375 -3.222656 1.226562 -3.144531 1.21875 -3.0625 C 1.21875 -2.988281 1.210938 -2.921875 1.203125 -2.859375 C 1.203125 -2.804688 1.203125 -2.78125 1.203125 -2.78125 L 1.234375 -2.78125 C 1.296875 -2.90625 1.367188 -3.007812 1.453125 -3.09375 C 1.546875 -3.175781 1.648438 -3.234375 1.765625 -3.265625 C 1.878906 -3.304688 2.003906 -3.328125 2.140625 -3.328125 C 2.484375 -3.328125 2.75 -3.234375 2.9375 -3.046875 C 3.125 -2.859375 3.21875 -2.554688 3.21875 -2.140625 L 3.21875 -0.703125 C 3.21875 -0.566406 3.238281 -0.46875 3.28125 -0.40625 C 3.320312 -0.34375 3.378906 -0.300781 3.453125 -0.28125 C 3.523438 -0.257812 3.601562 -0.25 3.6875 -0.25 L 3.703125 -0.25 L 3.703125 0 L 2.640625 0 L 2.640625 -2.109375 C 2.640625 -2.367188 2.585938 -2.570312 2.484375 -2.71875 C 2.390625 -2.863281 2.21875 -2.9375 1.96875 -2.9375 C 1.800781 -2.9375 1.660156 -2.894531 1.546875 -2.8125 C 1.441406 -2.738281 1.363281 -2.625 1.3125 -2.46875 C 1.257812 -2.320312 1.234375 -2.148438 1.234375 -1.953125 L 1.234375 -0.671875 C 1.234375 -0.546875 1.253906 -0.453125 1.296875 -0.390625 C 1.347656 -0.335938 1.410156 -0.300781 1.484375 -0.28125 C 1.554688 -0.257812 1.640625 -0.25 1.734375 -0.25 L 1.75 -0.25 L 1.75 0 Z "/>
</g>
<g id="glyph-0-1">
</g>
<g id="glyph-0-2">
<path d="M 0.390625 -2.609375 L 0.390625 -2.96875 L 3.015625 -2.96875 L 3.015625 -2.609375 Z M 0.390625 -1.40625 L 0.390625 -1.765625 L 3.015625 -1.765625 L 3.015625 -1.40625 Z "/>
</g>
<g id="glyph-0-3">
<path d="M 1.515625 0.0625 C 1.242188 0.0625 1.019531 0.03125 0.84375 -0.03125 C 0.675781 -0.09375 0.550781 -0.175781 0.46875 -0.28125 C 0.394531 -0.382812 0.359375 -0.492188 0.359375 -0.609375 C 0.359375 -0.734375 0.390625 -0.832031 0.453125 -0.90625 C 0.523438 -0.976562 0.617188 -1.015625 0.734375 -1.015625 C 0.734375 -0.796875 0.800781 -0.613281 0.9375 -0.46875 C 1.070312 -0.332031 1.265625 -0.265625 1.515625 -0.265625 C 1.679688 -0.265625 1.832031 -0.296875 1.96875 -0.359375 C 2.101562 -0.421875 2.210938 -0.523438 2.296875 -0.671875 C 2.378906 -0.816406 2.421875 -1.007812 2.421875 -1.25 C 2.421875 -1.507812 2.320312 -1.71875 2.125 -1.875 C 1.925781 -2.03125 1.65625 -2.109375 1.3125 -2.109375 L 1.125 -2.109375 L 1.125 -2.40625 L 1.3125 -2.40625 C 1.5 -2.40625 1.660156 -2.441406 1.796875 -2.515625 C 1.941406 -2.597656 2.054688 -2.710938 2.140625 -2.859375 C 2.234375 -3.003906 2.28125 -3.171875 2.28125 -3.359375 C 2.28125 -3.597656 2.226562 -3.785156 2.125 -3.921875 C 2.03125 -4.054688 1.863281 -4.125 1.625 -4.125 C 1.4375 -4.125 1.296875 -4.078125 1.203125 -3.984375 C 1.109375 -3.898438 1.039062 -3.789062 1 -3.65625 C 0.96875 -3.519531 0.953125 -3.367188 0.953125 -3.203125 C 0.804688 -3.203125 0.679688 -3.226562 0.578125 -3.28125 C 0.472656 -3.34375 0.421875 -3.453125 0.421875 -3.609375 C 0.421875 -3.765625 0.46875 -3.898438 0.5625 -4.015625 C 0.65625 -4.140625 0.789062 -4.238281 0.96875 -4.3125 C 1.144531 -4.382812 1.363281 -4.421875 1.625 -4.421875 C 2.007812 -4.421875 2.316406 -4.335938 2.546875 -4.171875 C 2.785156 -4.003906 2.90625 -3.765625 2.90625 -3.453125 C 2.90625 -3.265625 2.863281 -3.09375 2.78125 -2.9375 C 2.695312 -2.789062 2.582031 -2.660156 2.4375 -2.546875 C 2.289062 -2.441406 2.125 -2.367188 1.9375 -2.328125 C 2.050781 -2.316406 2.171875 -2.289062 2.296875 -2.25 C 2.429688 -2.207031 2.554688 -2.144531 2.671875 -2.0625 C 2.785156 -1.988281 2.878906 -1.882812 2.953125 -1.75 C 3.023438 -1.613281 3.0625 -1.445312 3.0625 -1.25 C 3.0625 -1 3.015625 -0.789062 2.921875 -0.625 C 2.828125 -0.457031 2.703125 -0.320312 2.546875 -0.21875 C 2.390625 -0.125 2.21875 -0.0507812 2.03125 0 C 1.851562 0.0390625 1.679688 0.0625 1.515625 0.0625 Z "/>
</g>
<g id="glyph-0-4">
<path d="M 1.671875 0.0625 C 1.359375 0.0625 1.097656 0.0078125 0.890625 -0.09375 C 0.691406 -0.195312 0.539062 -0.335938 0.4375 -0.515625 C 0.332031 -0.691406 0.28125 -0.882812 0.28125 -1.09375 C 0.28125 -1.289062 0.320312 -1.457031 0.40625 -1.59375 C 0.488281 -1.726562 0.597656 -1.84375 0.734375 -1.9375 C 0.878906 -2.03125 1.035156 -2.125 1.203125 -2.21875 C 1.054688 -2.300781 0.921875 -2.394531 0.796875 -2.5 C 0.679688 -2.601562 0.585938 -2.722656 0.515625 -2.859375 C 0.453125 -3.003906 0.421875 -3.160156 0.421875 -3.328125 C 0.421875 -3.515625 0.460938 -3.691406 0.546875 -3.859375 C 0.640625 -4.023438 0.78125 -4.160156 0.96875 -4.265625 C 1.164062 -4.367188 1.421875 -4.421875 1.734375 -4.421875 C 1.992188 -4.421875 2.210938 -4.375 2.390625 -4.28125 C 2.566406 -4.195312 2.703125 -4.070312 2.796875 -3.90625 C 2.890625 -3.75 2.9375 -3.570312 2.9375 -3.375 C 2.9375 -3.101562 2.863281 -2.890625 2.71875 -2.734375 C 2.570312 -2.585938 2.375 -2.457031 2.125 -2.34375 C 2.320312 -2.25 2.492188 -2.144531 2.640625 -2.03125 C 2.796875 -1.914062 2.914062 -1.785156 3 -1.640625 C 3.09375 -1.503906 3.140625 -1.347656 3.140625 -1.171875 C 3.140625 -0.785156 3.003906 -0.484375 2.734375 -0.265625 C 2.472656 -0.046875 2.117188 0.0625 1.671875 0.0625 Z M 1.703125 -0.21875 C 1.960938 -0.21875 2.171875 -0.289062 2.328125 -0.4375 C 2.492188 -0.59375 2.578125 -0.789062 2.578125 -1.03125 C 2.578125 -1.164062 2.539062 -1.289062 2.46875 -1.40625 C 2.40625 -1.519531 2.296875 -1.628906 2.140625 -1.734375 C 1.984375 -1.835938 1.769531 -1.945312 1.5 -2.0625 C 1.3125 -1.957031 1.160156 -1.820312 1.046875 -1.65625 C 0.929688 -1.488281 0.875 -1.289062 0.875 -1.0625 C 0.875 -0.8125 0.941406 -0.609375 1.078125 -0.453125 C 1.222656 -0.296875 1.429688 -0.21875 1.703125 -0.21875 Z M 1.828125 -2.484375 C 1.972656 -2.554688 2.085938 -2.632812 2.171875 -2.71875 C 2.253906 -2.800781 2.3125 -2.894531 2.34375 -3 C 2.382812 -3.113281 2.40625 -3.242188 2.40625 -3.390625 C 2.40625 -3.515625 2.378906 -3.632812 2.328125 -3.75 C 2.285156 -3.863281 2.210938 -3.957031 2.109375 -4.03125 C 2.015625 -4.101562 1.878906 -4.140625 1.703125 -4.140625 C 1.472656 -4.140625 1.296875 -4.066406 1.171875 -3.921875 C 1.054688 -3.785156 1 -3.613281 1 -3.40625 C 1 -3.257812 1.023438 -3.128906 1.078125 -3.015625 C 1.140625 -2.910156 1.234375 -2.816406 1.359375 -2.734375 C 1.484375 -2.648438 1.640625 -2.566406 1.828125 -2.484375 Z "/>
</g>
</g>
</defs>
<g fill="rgb(100%, 100%, 100%)" fill-opacity="1">
<use xlink:href="#glyph-0-0" x="30" y="26.532227"/>
<use xlink:href="#glyph-0-1" x="34" y="26.532227"/>
<use xlink:href="#glyph-0-2" x="36" y="26.532227"/>
<use xlink:href="#glyph-0-1" x="39" y="26.532227"/>
<use xlink:href="#glyph-0-3" x="41" y="26.532227"/>
<use xlink:href="#glyph-0-4" x="44" y="26.532227"/>
</g>
</svg>
